<?xml version="1.0" standalone="no"?>
<!DOCTYPE svg PUBLIC "-//W3C//DTD SVG 20010904//EN"
 "http://www.w3.org/TR/2001/REC-SVG-20010904/DTD/svg10.dtd">
<svg version="1.0" xmlns="http://www.w3.org/2000/svg"
 width="3000.000000pt" height="1697.000000pt" viewBox="0 0 3000.000000 1697.000000"
 preserveAspectRatio="xMidYMid meet">

<g transform="translate(0.000000,1697.000000) scale(0.100000,-0.100000)"
fill="#000000" stroke="none">
<path d="M4595 14910 c-162 -22 -322 -61 -419 -104 -28 -12 -71 -31 -96 -42
-170 -72 -402 -234 -550 -384 -77 -79 -88 -92 -197 -246 -29 -39 -89 -157
-107 -209 -10 -27 -22 -59 -26 -70 -5 -11 -16 -53 -25 -94 -19 -84 -23 -337
-6 -370 6 -11 11 -29 11 -40 0 -32 38 -137 80 -222 62 -127 145 -243 346 -489
11 -12 30 -34 43 -49 13 -14 40 -46 60 -71 20 -25 39 -47 42 -50 12 -10 95
-116 149 -190 30 -41 57 -77 61 -80 5 -4 47 -78 80 -140 34 -64 69 -192 69
-251 0 -71 -43 -200 -87 -259 -29 -39 -144 -154 -188 -187 -113 -86 -343 -212
-435 -237 -14 -4 -34 -11 -45 -16 -41 -17 -218 -70 -236 -70 -10 0 -21 -4 -24
-10 -3 -5 -13 -10 -21 -10 -9 0 -45 -13 -81 -30 -35 -16 -67 -30 -70 -30 -29
0 -233 -176 -233 -201 0 -4 -6 -14 -13 -21 -7 -7 -28 -44 -46 -83 -18 -38 -37
-78 -42 -87 -5 -10 -9 -27 -9 -37 0 -11 -4 -22 -9 -25 -5 -3 -14 -52 -21 -108
-14 -109 -3 -264 21 -325 7 -15 18 -44 26 -63 21 -52 40 -86 101 -180 51 -78
248 -286 487 -511 219 -207 375 -400 435 -536 12 -26 25 -57 30 -68 25 -58 32
-200 13 -265 -44 -149 -146 -274 -363 -443 -26 -21 -212 -142 -295 -192 -44
-27 -82 -52 -85 -55 -3 -3 -40 -31 -82 -62 -116 -86 -238 -211 -303 -308 -39
-59 -115 -211 -115 -231 0 -8 -4 -19 -9 -25 -8 -9 -29 -124 -39 -214 -4 -43
11 -173 29 -252 20 -84 30 -120 38 -136 5 -9 17 -35 26 -57 90 -218 241 -431
465 -655 178 -178 244 -237 430 -378 30 -23 60 -46 65 -50 6 -5 24 -17 40 -28
17 -10 32 -21 35 -24 26 -27 307 -202 465 -289 159 -88 431 -221 453 -221 4 0
18 -6 32 -13 14 -7 48 -21 75 -31 28 -10 55 -22 60 -26 6 -4 26 -11 45 -15 19
-4 41 -11 50 -16 8 -5 62 -22 120 -39 58 -17 116 -34 130 -38 l25 -8 -4 -366
c-2 -202 -7 -383 -10 -404 -5 -30 -12 -39 -36 -47 -17 -6 -32 -13 -35 -17 -3
-3 -26 -15 -52 -26 -27 -10 -48 -22 -48 -26 0 -5 -6 -8 -13 -8 -19 0 -182
-108 -267 -177 -100 -82 -153 -134 -223 -218 -73 -89 -70 -85 -93 -120 -10
-17 -21 -32 -24 -35 -13 -12 -90 -162 -109 -213 -8 -20 -18 -37 -22 -37 -5 0
-28 14 -52 30 -25 17 -51 30 -59 30 -8 0 -19 5 -25 11 -5 5 -44 10 -85 10 -58
0 -84 -5 -114 -21 -47 -27 -104 -79 -104 -97 0 -7 -4 -13 -10 -13 -5 0 -10 -6
-10 -12 0 -7 -7 -25 -14 -40 -8 -15 -18 -53 -21 -85 -4 -32 -9 -61 -12 -65 -2
-4 -22 0 -45 8 -58 20 -235 18 -320 -4 -37 -10 -71 -21 -74 -25 -4 -4 -14 -7
-22 -7 -19 0 -130 -54 -212 -103 -136 -82 -280 -204 -400 -342 -76 -86 -149
-205 -183 -295 -17 -46 -24 -190 -9 -190 14 0 34 -42 24 -52 -10 -10 -137 -36
-217 -44 -35 -4 -79 2 -149 20 -148 39 -304 31 -276 -13 7 -12 15 -13 48 -2
45 15 98 11 192 -15 84 -23 248 -23 350 -1 68 15 265 16 2072 16 l1997 0 35
-32 c19 -17 41 -37 48 -42 79 -61 104 -80 108 -85 3 -3 25 -21 50 -40 25 -19
47 -37 50 -40 3 -3 32 -25 65 -50 33 -25 65 -49 72 -55 7 -5 18 -15 25 -21 27
-22 235 -171 275 -196 78 -51 123 -46 123 14 0 48 -27 93 -102 165 -65 63
-174 206 -228 298 -13 22 -27 42 -30 45 -4 3 -9 13 -13 22 -5 15 31 17 486 22
271 4 513 6 539 7 25 0 56 -5 68 -11 11 -6 51 -12 89 -12 74 -2 122 15 177 61
85 71 110 86 155 94 56 8 104 -7 177 -56 154 -103 224 -102 337 4 85 80 120
99 183 99 54 0 57 -1 121 -63 36 -35 83 -70 104 -77 36 -14 47 -35 28 -55 -4
-6 -13 -25 -19 -42 -10 -30 -8 -34 16 -52 47 -33 502 -311 509 -311 5 0 18 -8
31 -18 20 -16 24 -31 32 -127 5 -61 13 -122 19 -137 l11 -28 117 -2 c65 -1
100 -3 78 -4 -144 -11 -339 -43 -390 -64 -11 -5 -33 -11 -49 -15 -41 -9 -66
-28 -57 -44 6 -10 24 -7 82 13 168 58 412 81 684 67 214 -12 619 -16 635 -6 5
3 40 12 77 20 38 8 97 21 133 30 36 9 85 21 110 27 45 11 300 15 540 7 123 -3
182 3 410 46 369 69 374 70 790 70 240 0 391 4 400 10 8 6 92 15 185 22 94 6
247 19 340 28 271 26 369 34 549 45 92 6 175 14 185 19 9 5 38 12 65 16 27 3
56 10 65 15 9 4 43 16 76 26 33 10 65 21 70 25 6 3 27 12 48 18 26 9 37 18 37
32 0 28 -7 27 -115 -22 -35 -16 -179 -59 -215 -64 -19 -3 -51 -10 -70 -15 -19
-6 -123 -15 -230 -21 -107 -6 -233 -14 -280 -19 -47 -5 -165 -15 -262 -24 -98
-8 -181 -17 -186 -20 -4 -2 -61 -6 -125 -7 -111 -2 -119 -1 -133 19 -21 30
-67 52 -128 63 -124 20 -261 57 -333 89 -13 6 -33 14 -45 19 -13 5 -72 32
-132 60 l-109 51 7 77 c3 42 6 89 6 105 l0 28 1433 0 c835 0 1457 3 1492 9 33
5 83 19 110 32 48 21 60 22 385 23 247 1 341 4 357 14 17 9 592 12 2758 12
2527 0 2738 -1 2753 -16 14 -15 34 -16 152 -11 74 4 151 11 170 17 23 7 571
10 1606 10 l1570 0 10 -37 c13 -53 40 -54 120 -4 l65 41 597 0 c649 0 630 -1
724 57 21 13 40 23 43 23 3 0 22 10 43 23 58 36 123 57 176 57 41 0 58 -7 117
-47 172 -118 158 -113 299 -113 123 0 165 8 246 45 40 19 59 41 44 50 -11 7
-56 -10 -70 -25 -16 -18 -141 -40 -228 -40 -114 0 -130 6 -237 87 -102 78
-136 89 -217 74 -53 -9 -235 -95 -258 -122 -7 -8 -105 -39 -123 -39 -17 0 -44
82 -64 195 -3 17 -9 35 -13 40 -4 6 -11 29 -15 52 -4 24 -11 45 -16 49 -5 3
-9 12 -9 20 0 23 -60 139 -92 178 -16 20 -45 43 -65 52 -43 21 -118 21 -158 0
-17 -9 -35 -16 -41 -16 -6 0 -44 51 -84 113 -40 61 -93 143 -118 180 -24 37
-42 71 -39 74 4 3 -1 18 -11 32 -9 14 -26 44 -37 66 -11 22 -22 42 -25 45 -3
3 -16 28 -30 55 -14 28 -32 61 -41 75 -9 14 -31 54 -50 90 -18 36 -36 67 -39
70 -3 3 -18 30 -34 60 -30 59 -98 186 -139 260 -13 25 -38 70 -54 100 -17 30
-42 75 -55 100 -14 25 -42 77 -63 115 -20 39 -50 93 -65 120 -15 28 -52 97
-83 155 -30 58 -73 139 -96 180 -23 41 -58 109 -78 150 -21 41 -40 77 -43 80
-3 3 -65 124 -138 270 -72 146 -179 341 -237 434 -58 92 -105 170 -105 171 0
2 29 17 65 33 63 30 137 93 167 142 8 14 23 50 33 80 10 30 21 64 26 75 4 11
13 43 19 70 6 28 18 77 26 110 35 147 46 210 80 440 39 273 57 654 44 929 -14
277 -24 365 -70 620 -24 132 -104 398 -152 506 -65 145 -159 318 -210 385 -26
35 -129 153 -147 169 -15 14 -21 31 -21 61 0 23 -10 77 -21 121 -36 134 -50
232 -57 414 -13 318 6 671 53 1010 9 63 20 161 24 218 5 57 10 104 12 105 11
7 79 26 114 32 43 7 167 46 225 71 221 96 452 287 520 430 41 88 45 98 61 164
24 102 12 355 -22 435 -4 11 -11 36 -15 55 -9 48 -80 221 -126 310 -33 63
-151 250 -180 285 -5 6 -36 46 -69 90 -59 78 -93 120 -154 195 -16 20 -45 55
-63 77 -18 23 -45 54 -58 70 -85 95 -90 105 -103 193 -43 287 -62 343 -129
371 -63 27 -115 22 -145 -16 -4 -5 -5 -89 -2 -185 6 -156 9 -180 31 -222 13
-27 33 -58 44 -70 23 -25 47 -74 75 -153 9 -27 21 -59 26 -70 4 -11 16 -45 25
-75 8 -30 20 -64 24 -75 5 -11 18 -58 30 -105 128 -493 113 -801 -48 -964 -39
-39 -66 -56 -137 -86 -39 -15 -151 -31 -178 -25 -28 8 -166 -13 -182 -27 -13
-11 -82 -10 -90 2 -3 5 -14 10 -24 10 -10 0 -43 7 -72 16 -114 34 -121 38
-135 80 -18 50 -18 94 -1 94 8 0 23 11 36 23 18 20 21 34 20 83 -2 53 17 126
41 159 4 6 11 26 15 45 4 19 11 41 15 50 4 8 15 40 24 70 8 30 23 80 32 110 9
30 31 88 50 127 54 117 64 170 48 243 -36 154 -245 460 -367 537 -38 24 -44
24 -180 20 -140 -5 -233 -17 -292 -38 -88 -32 -153 -71 -187 -113 -48 -56 -87
-76 -154 -76 -44 0 -55 -4 -65 -21 -33 -62 43 -240 122 -286 l31 -18 -8 -65
c-17 -148 -1 -561 28 -698 14 -65 48 -120 95 -152 36 -25 132 -49 193 -50 34
0 36 -1 48 -53 20 -88 32 -75 -128 -143 -36 -15 -99 -43 -140 -63 -69 -32 -82
-35 -170 -36 -105 0 -156 17 -235 79 -112 88 -219 268 -290 486 -16 47 -32 94
-36 105 -4 11 -13 43 -19 70 -6 28 -15 66 -20 85 -4 19 -14 64 -20 100 -6 36
-15 81 -20 100 -5 19 -16 86 -24 147 -14 100 -14 120 -1 183 17 80 21 63 -62
250 -63 141 -85 180 -109 186 -40 10 -77 -5 -116 -48 -40 -42 -48 -82 -29
-144 5 -16 16 -56 26 -89 9 -33 20 -69 25 -80 29 -69 60 -177 54 -187 -4 -6
-11 -28 -15 -47 -4 -20 -15 -70 -24 -111 -9 -41 -23 -111 -31 -155 -9 -44 -20
-100 -25 -125 -41 -199 -59 -368 -59 -550 1 -166 9 -247 35 -350 9 -36 19 -77
22 -93 3 -15 9 -30 14 -33 5 -3 9 -13 9 -23 0 -25 85 -188 124 -238 114 -146
209 -215 391 -282 50 -18 99 -37 110 -41 11 -5 40 -13 65 -20 25 -6 61 -16 80
-21 19 -6 58 -15 85 -20 28 -5 73 -14 101 -19 l52 -11 5 -222 c14 -565 38
-931 78 -1197 21 -141 16 -226 -31 -510 -5 -30 -16 -98 -24 -150 -22 -143 -47
-299 -56 -355 -4 -27 -13 -81 -19 -119 -6 -38 -15 -74 -19 -80 -5 -6 -17 -38
-27 -71 -11 -33 -23 -64 -27 -69 -4 -6 -8 -16 -8 -24 0 -8 -6 -28 -14 -45 -8
-18 -22 -54 -31 -82 -9 -27 -20 -57 -25 -65 -4 -9 -11 -31 -15 -50 -4 -19 -10
-39 -14 -45 -4 -5 -15 -35 -25 -65 -10 -30 -21 -64 -26 -75 -5 -11 -16 -45
-26 -75 -10 -30 -21 -59 -25 -65 -4 -5 -10 -26 -14 -45 -4 -19 -10 -39 -14
-45 -4 -5 -15 -35 -25 -65 -10 -30 -22 -64 -26 -75 -5 -11 -41 -117 -80 -235
-39 -118 -75 -224 -80 -235 -5 -11 -16 -45 -25 -75 -9 -30 -20 -64 -25 -75
-15 -35 -70 -221 -70 -236 0 -8 -6 -21 -12 -28 -10 -9 -13 -118 -13 -476 l0
-464 -35 27 c-19 14 -37 29 -40 33 -9 11 -132 84 -190 111 -192 91 -447 131
-708 110 -144 -11 -258 -30 -357 -58 -33 -9 -71 -19 -85 -22 -14 -2 -29 -8
-35 -12 -5 -4 -26 -11 -45 -15 -19 -4 -41 -11 -50 -15 -8 -4 -26 -12 -40 -18
-94 -40 -134 -59 -205 -94 -44 -23 -90 -46 -102 -52 -13 -6 -23 -14 -23 -18 0
-5 -5 -8 -11 -8 -10 0 -146 -85 -159 -100 -3 -3 -32 -25 -65 -49 -90 -67 -195
-166 -295 -278 -74 -82 -91 -104 -156 -200 -31 -46 -57 -83 -58 -83 -8 0 -96
122 -96 132 0 7 31 75 69 152 38 78 85 177 106 221 20 44 45 98 55 120 35 74
70 156 70 161 0 3 9 26 21 52 25 58 32 75 54 132 10 25 24 59 31 77 8 17 14
37 14 45 0 8 4 18 8 24 5 5 28 70 52 144 23 74 49 154 56 178 8 23 14 52 14
62 0 11 4 28 9 38 21 42 41 197 41 322 l0 133 -44 41 c-105 99 -184 143 -851
473 -97 48 -119 63 -117 79 1 10 7 46 12 79 15 92 29 376 29 615 l1 216 38 13
c76 27 191 89 254 138 79 61 248 245 292 317 10 17 22 33 25 36 11 8 71 109
71 119 0 5 3 11 8 13 15 6 152 297 152 322 0 8 5 18 10 21 6 3 10 13 10 22 0
8 7 31 16 50 13 25 14 37 5 46 -16 16 -14 32 8 78 11 22 23 54 27 72 3 17 10
38 15 47 4 8 15 42 24 75 10 33 21 71 25 85 5 14 11 43 15 65 15 104 28 134
66 160 46 33 75 90 104 205 9 36 21 74 25 85 15 34 31 131 25 147 -8 21 -69
48 -108 48 -45 0 -93 -32 -115 -77 -17 -37 -74 -209 -92 -283 -23 -91 -43
-144 -90 -236 -99 -193 -154 -284 -170 -281 -16 3 -20 -1 -89 -84 -95 -114
-277 -279 -310 -279 -5 0 -11 -4 -13 -9 -2 -7 -154 -83 -223 -111 -51 -21
-149 -50 -245 -73 -52 -12 -58 -11 -105 12 -62 32 -64 34 -54 79 17 83 16 82
76 82 113 0 200 43 242 119 19 35 26 70 38 209 8 92 19 175 24 184 5 10 9 22
9 27 0 5 13 39 30 74 16 36 30 70 30 75 0 5 7 23 15 38 8 16 15 37 15 46 0 9
5 20 10 23 5 3 10 17 10 30 0 13 4 27 10 30 13 8 13 192 0 200 -5 3 -10 14
-10 24 0 10 -7 24 -15 31 -8 7 -15 23 -15 36 0 12 -4 26 -10 29 -5 3 -10 13
-10 22 0 42 -85 163 -115 163 -5 0 -22 6 -37 14 -44 23 -197 61 -388 96 -30 6
-101 13 -158 17 -82 4 -113 2 -157 -12 -55 -17 -148 -73 -195 -117 -35 -32
-90 -104 -90 -117 0 -6 -4 -11 -9 -11 -5 0 -12 -11 -15 -25 -4 -16 -13 -25
-25 -25 -39 0 -81 -35 -105 -85 -36 -77 -48 -208 -36 -419 8 -151 7 -190 -7
-259 -8 -45 -19 -86 -23 -92 -4 -5 -11 -26 -15 -45 -4 -19 -11 -41 -15 -50
-33 -67 -50 -128 -59 -218 l-6 -64 -70 53 c-87 66 -219 199 -265 268 -24 36
-44 54 -63 58 -15 3 -27 11 -27 17 0 7 -9 30 -19 52 -11 22 -23 54 -27 70 -4
16 -10 34 -14 39 -3 6 -15 39 -24 75 -10 36 -23 76 -30 89 -6 14 -10 63 -8
120 2 108 1 111 -116 303 -83 137 -90 144 -136 127 -20 -7 -50 -28 -68 -46
-25 -26 -31 -41 -31 -75 0 -45 40 -139 100 -235 18 -29 33 -54 33 -57 0 -2 16
-31 35 -63 26 -44 38 -80 49 -153 24 -147 52 -277 66 -302 7 -13 2 -25 -23
-51 -36 -36 -36 -29 0 -117 8 -19 19 -46 25 -60 6 -14 16 -38 23 -55 36 -86
125 -269 173 -357 51 -92 57 -103 63 -108 4 -3 9 -15 13 -27 4 -13 12 -23 17
-23 5 0 9 -4 9 -9 0 -8 42 -75 88 -140 84 -117 268 -311 359 -376 l55 -40 -5
-80 c-4 -44 -13 -114 -22 -155 -9 -41 -20 -95 -25 -120 -21 -96 -30 -187 -25
-235 7 -61 25 -137 36 -149 4 -4 -7 -24 -24 -43 -41 -44 -127 -210 -127 -243
0 -5 -5 -19 -10 -30 -24 -49 -28 -58 -35 -90 -4 -19 -11 -39 -15 -45 -4 -5
-10 -21 -12 -35 -3 -14 -13 -52 -23 -85 -9 -33 -23 -87 -31 -120 -9 -33 -20
-78 -25 -100 -21 -82 -41 -183 -53 -265 -7 -47 -16 -91 -20 -98 -4 -6 -9 -76
-11 -154 l-4 -142 -38 -11 c-39 -12 -66 -24 -333 -152 -189 -91 -302 -145
-395 -188 -44 -21 -126 -60 -181 -86 -56 -27 -107 -49 -113 -49 -6 0 -11 -4
-11 -10 0 -5 -5 -10 -11 -10 -16 0 -97 -39 -104 -50 -3 -5 -20 -10 -37 -10
-18 0 -45 -4 -62 -9 -17 -5 -74 -17 -127 -26 -114 -20 -109 -12 -109 -179 l0
-102 -40 -39 c-22 -21 -40 -44 -40 -50 0 -6 -10 -17 -21 -25 -12 -8 -38 -26
-58 -41 -20 -14 -42 -28 -49 -33 -6 -4 4 24 23 63 19 38 35 76 35 83 0 8 4 18
9 23 19 21 31 172 20 262 -6 48 -14 93 -19 98 -4 6 -10 27 -14 48 -4 20 -12
37 -19 37 -20 0 -64 -80 -93 -170 -15 -47 -31 -94 -35 -105 -12 -29 -31 -159
-36 -243 -3 -53 0 -84 13 -118 l18 -47 -30 -24 c-55 -47 -179 -158 -226 -204
-27 -25 -50 -44 -52 -42 -2 2 5 28 16 56 17 42 21 77 22 177 1 72 -4 138 -10
155 -7 17 -17 49 -23 73 -7 23 -17 42 -24 42 -11 0 -67 -99 -88 -155 -61 -165
-91 -442 -54 -491 20 -26 19 -27 -17 -72 -57 -68 -79 -96 -106 -134 -33 -46
-47 -48 -36 -5 17 68 -1 285 -27 312 -5 5 -9 19 -9 32 0 59 -58 -10 -94 -112
-10 -27 -22 -59 -26 -70 -23 -53 -60 -259 -60 -331 0 -62 15 -124 33 -135 11
-8 7 -18 -28 -74 -14 -22 -28 -47 -31 -55 -4 -8 -30 -64 -59 -125 -29 -60 -61
-134 -71 -163 -13 -37 -25 -54 -39 -56 -11 -2 -56 -9 -100 -16 -44 -7 -86 -17
-93 -22 -7 -6 -15 -9 -17 -6 -3 2 -7 60 -9 129 -3 68 -8 153 -11 189 l-7 65
49 19 c99 39 193 114 255 201 35 49 98 159 98 169 0 4 -11 6 -25 6 -23 0 -40
-6 -112 -36 -17 -8 -36 -14 -41 -14 -6 0 -12 -3 -14 -7 -1 -5 -21 -17 -43 -28
-21 -11 -79 -48 -128 -82 -48 -35 -90 -63 -92 -63 -2 0 -15 25 -29 57 -25 53
-26 61 -17 145 5 49 13 94 18 99 5 5 38 16 74 25 72 17 77 19 174 64 52 25 90
53 148 111 42 43 77 83 77 88 0 5 6 16 13 23 6 7 20 29 29 48 9 19 22 46 28
59 12 24 12 24 -34 18 -25 -4 -54 -11 -63 -16 -10 -5 -46 -23 -79 -39 -114
-56 -224 -134 -306 -214 -35 -35 -58 -40 -37 -8 5 8 9 26 9 39 0 13 6 47 14
75 8 28 22 78 32 111 31 114 70 220 79 221 95 5 275 73 336 126 15 13 40 34
56 48 55 46 163 209 163 245 0 19 -14 19 -70 -1 -113 -38 -295 -148 -384 -232
-25 -24 -46 -37 -46 -30 0 22 131 278 143 278 10 0 100 65 151 110 34 30 106
125 106 140 0 5 5 10 10 10 6 0 10 5 10 11 0 6 6 25 14 42 38 85 70 297 47
311 -14 9 -125 -103 -186 -189 -90 -126 -154 -255 -162 -328 -3 -29 -13 -63
-22 -77 -9 -14 -25 -43 -36 -64 l-20 -40 -6 95 c-4 53 -9 106 -13 120 -19 70
-41 129 -48 129 -4 0 -8 5 -8 10 0 20 -69 119 -119 171 l-50 52 -12 -29 c-13
-34 -6 -149 16 -244 8 -36 19 -87 26 -115 6 -27 15 -54 20 -59 5 -6 9 -16 9
-22 0 -30 63 -145 95 -173 19 -17 35 -34 35 -39 0 -4 -11 -30 -24 -58 -12 -27
-31 -71 -41 -99 -10 -27 -21 -54 -25 -60 -3 -5 -15 -37 -25 -70 -10 -33 -24
-73 -31 -90 l-14 -30 0 45 c0 64 -15 117 -63 220 -35 77 -156 218 -176 206
-24 -15 -10 -188 29 -346 14 -56 61 -193 69 -200 4 -3 12 -17 19 -33 6 -15 27
-41 46 -58 31 -29 33 -34 24 -68 -5 -20 -16 -73 -23 -118 -7 -45 -16 -87 -20
-93 -9 -14 -25 -3 -25 17 0 18 -57 141 -74 160 -6 6 -22 26 -36 44 -42 54 -87
99 -100 99 -10 0 -12 -28 -8 -124 l5 -124 -81 42 c-45 23 -99 47 -121 53 -22
6 -67 19 -100 29 -76 23 -427 27 -515 6 -30 -7 -84 -20 -120 -29 -36 -8 -74
-19 -85 -23 -11 -4 -42 -16 -70 -25 -57 -19 -112 -41 -137 -55 -36 -20 -38
-12 -38 123 0 181 -28 634 -50 797 -15 107 -52 215 -126 367 -35 72 -64 136
-64 141 0 6 -3 12 -7 14 -5 1 -44 75 -89 163 -44 88 -116 228 -159 310 -43 83
-108 209 -145 280 -37 72 -100 193 -140 270 -40 77 -96 185 -124 240 -28 55
-53 102 -56 105 -3 3 -25 44 -49 92 l-43 88 5 92 c3 51 10 185 16 298 6 113
19 288 28 390 20 203 21 342 9 710 l-9 245 30 26 c16 14 36 30 45 35 73 43
346 316 442 443 29 38 72 75 103 91 73 36 232 137 266 169 32 30 37 41 37 79
0 48 -24 99 -52 108 -23 7 -23 29 0 46 10 7 31 30 46 51 23 30 26 40 16 52
-20 24 -56 17 -97 -17 -21 -18 -41 -37 -45 -43 -5 -6 -12 -5 -20 3 -18 18 -44
15 -88 -13 -22 -14 -42 -25 -45 -25 -2 0 -34 -18 -70 -40 -36 -22 -70 -40 -75
-40 -6 0 -10 -4 -10 -10 0 -5 -6 -10 -13 -10 -14 0 -67 -51 -67 -64 0 -11 -32
-78 -45 -94 -11 -13 -197 -185 -236 -217 -45 -38 -136 -105 -142 -105 -3 0 -8
37 -10 83 -19 337 -28 459 -35 474 -5 10 -17 52 -27 93 -10 41 -21 80 -25 85
-4 6 -11 26 -15 45 -4 19 -11 41 -16 50 -4 8 -34 69 -65 135 -32 66 -68 134
-81 151 -13 17 -23 34 -23 37 0 4 -17 30 -37 59 -37 51 -38 56 -41 149 -4 111
-8 107 98 116 72 6 111 22 153 62 42 39 60 86 68 181 13 155 26 245 36 265 33
64 43 87 67 155 15 41 33 86 39 99 7 14 12 69 12 130 0 93 -3 110 -22 136 -12
17 -24 47 -28 66 -16 87 -96 182 -164 195 -17 4 -34 11 -37 15 -3 5 -18 9 -33
9 -15 0 -31 4 -37 9 -9 9 -67 22 -219 48 -115 20 -292 28 -319 14 -12 -5 -42
-19 -68 -30 -62 -28 -159 -119 -205 -192 -20 -33 -41 -59 -47 -59 -37 0 -110
-96 -147 -195 -21 -56 -58 -185 -64 -220 -3 -22 -10 -49 -14 -60 -5 -11 -16
-56 -26 -100 -9 -44 -21 -88 -26 -97 -5 -10 -9 -25 -9 -33 0 -24 -60 -195 -80
-227 -10 -16 -87 -100 -171 -186 -146 -149 -233 -246 -253 -281 -5 -9 -12 -18
-16 -21 -9 -8 -83 -130 -105 -175 -11 -22 -23 -41 -27 -43 -5 -2 -8 -10 -8
-19 0 -8 -6 -29 -14 -46 -31 -72 -38 -100 -45 -179 -8 -95 2 -250 20 -294 6
-16 18 -43 25 -61 8 -17 14 -36 14 -42 0 -6 5 -11 10 -11 6 0 10 -5 10 -12 0
-11 56 -104 75 -124 6 -6 10 -75 10 -170 l0 -159 -30 -6 c-17 -4 -65 -7 -108
-8 -65 -1 -79 2 -84 17 -4 9 -14 24 -23 32 -45 43 -89 116 -141 235 -15 34
-30 115 -45 245 -21 185 -25 214 -34 225 -5 6 -11 31 -15 58 -4 26 -11 50 -16
53 -5 3 -9 12 -9 21 0 15 -29 83 -39 93 -4 3 -14 22 -25 42 -37 73 -153 172
-229 193 -28 8 -82 31 -130 55 -20 11 -53 22 -72 26 -19 3 -35 10 -35 15 0 5
-8 9 -17 9 -21 1 -120 34 -130 44 -3 3 -15 6 -26 6 -18 0 -19 5 -13 46 3 26 6
53 6 60 0 9 11 14 28 14 86 0 179 30 229 74 50 43 57 74 79 349 3 37 10 67 15
67 5 0 9 6 9 14 0 12 22 68 76 193 8 17 14 37 14 45 0 8 4 18 8 24 18 20 35
123 28 171 -4 26 -11 80 -15 118 -12 126 -32 145 -164 155 -126 10 -199 21
-212 30 -5 4 -31 11 -57 14 -26 4 -50 11 -53 17 -4 5 -19 9 -35 9 -16 0 -31 4
-34 9 -4 5 -25 12 -49 16 -23 4 -46 11 -52 15 -5 4 -42 13 -82 19 -110 17
-163 2 -228 -63 -31 -32 -55 -66 -63 -91 -9 -31 -17 -41 -34 -42 -37 -3 -66
-24 -80 -57 -15 -35 -14 -170 1 -220 6 -17 17 -62 26 -101 9 -38 20 -79 25
-90 5 -11 13 -38 18 -60 6 -22 18 -65 27 -95 9 -30 18 -66 21 -80 3 -14 10
-34 15 -45 12 -26 30 -108 36 -166 l5 -46 -88 -7 c-48 -3 -92 -10 -98 -15 -6
-4 -29 -11 -51 -14 -22 -3 -54 -8 -71 -12 l-31 -7 -6 142 c-3 82 -10 147 -16
153 -6 6 -11 21 -11 34 0 42 -26 113 -96 258 -118 247 -251 389 -446 478 -32
15 -70 29 -85 33 -16 4 -32 10 -38 14 -5 4 -26 11 -45 15 -19 4 -41 11 -50 15
-8 5 -42 16 -75 25 -33 10 -68 21 -77 26 -10 5 -25 9 -34 9 -18 0 -53 14 -174
73 -68 32 -101 57 -166 121 -44 45 -88 99 -98 121 -9 22 -21 49 -26 60 -39 89
-48 435 -17 665 9 69 23 177 32 240 8 63 19 161 25 218 5 57 12 122 15 145 7
50 -29 327 -55 417 -29 101 -43 147 -50 165 -5 11 -12 31 -16 45 -18 67 -136
303 -170 341 -8 8 -14 19 -14 23 0 35 -254 315 -345 382 -22 16 -42 32 -45 35
-3 3 -43 30 -89 58 -73 45 -126 72 -236 121 -40 17 -159 51 -280 80 -62 14
-359 21 -440 10z m390 -45 c179 -28 270 -55 425 -128 48 -22 182 -107 243
-154 73 -56 198 -179 247 -243 19 -25 37 -47 40 -50 3 -3 30 -43 61 -90 69
-106 120 -206 169 -335 34 -89 46 -128 81 -255 46 -167 45 -505 0 -785 -81
-489 -73 -775 26 -944 78 -135 184 -219 378 -301 11 -4 45 -16 75 -25 30 -10
62 -21 70 -25 9 -4 31 -11 50 -14 19 -4 44 -11 55 -15 11 -5 45 -16 75 -25 60
-19 64 -21 163 -65 112 -51 206 -125 288 -227 8 -11 18 -26 22 -34 4 -8 16
-28 27 -45 11 -16 23 -37 27 -45 3 -8 9 -17 12 -20 19 -16 121 -257 121 -285
0 -9 4 -23 10 -33 12 -21 40 -215 40 -275 0 -48 -22 -87 -49 -87 -9 0 -37 -6
-62 -14 -24 -8 -71 -21 -104 -31 -33 -9 -68 -20 -77 -26 -10 -5 -24 -9 -31 -9
-18 0 -161 -55 -227 -87 -85 -42 -85 -43 -85 -157 0 -96 2 -105 39 -180 l38
-78 -124 -122 c-99 -97 -130 -135 -158 -191 l-35 -70 3 -232 3 -231 -64 -104
c-35 -56 -78 -134 -96 -173 -18 -38 -36 -77 -40 -85 -4 -8 -15 -42 -25 -75
-11 -33 -23 -69 -27 -80 -5 -11 -14 -75 -22 -143 -11 -101 -11 -143 0 -240 7
-64 17 -125 23 -134 5 -10 10 -24 10 -33 0 -37 66 -190 149 -345 27 -51 29
-59 20 -100 -6 -25 -11 -106 -12 -180 -1 -146 11 -188 65 -236 35 -31 172 -74
238 -74 53 0 76 -16 102 -72 56 -116 68 -142 68 -151 0 -5 6 -23 14 -40 7 -18
23 -75 35 -127 12 -52 26 -111 31 -130 30 -110 18 -373 -23 -550 -16 -69 -69
-235 -91 -285 -7 -16 -20 -46 -27 -65 -34 -85 -121 -242 -177 -321 -115 -160
-254 -269 -432 -339 -140 -54 -176 -66 -235 -75 -22 -4 -49 -10 -60 -15 -11
-4 -49 -13 -85 -20 -36 -6 -85 -16 -110 -21 -25 -6 -74 -16 -110 -23 -36 -7
-72 -15 -80 -18 -8 -4 -33 -9 -55 -13 -22 -3 -53 -10 -70 -15 -16 -5 -57 -16
-90 -25 -33 -9 -73 -21 -88 -27 -15 -6 -30 -8 -33 -5 -4 3 -13 129 -21 279 -7
150 -18 336 -22 413 -5 77 -14 226 -20 330 -6 105 -13 226 -15 270 -3 44 -12
204 -21 355 -9 151 -20 338 -25 415 -5 77 -16 264 -25 415 -16 286 -19 334
-36 615 -6 94 -15 240 -19 325 -23 406 -40 701 -45 765 -2 39 -11 189 -20 335
-8 146 -17 301 -20 345 -3 44 -12 202 -20 350 -24 402 -24 408 -35 570 -6 83
-16 240 -21 350 -6 110 -14 234 -18 275 -7 64 -8 51 -10 -90 -1 -91 -5 -174
-7 -185 -3 -11 -9 -204 -14 -430 -5 -225 -12 -475 -15 -555 -4 -80 -11 -332
-16 -560 -5 -228 -16 -680 -25 -1005 -20 -788 -30 -1158 -43 -1725 -6 -261
-15 -599 -21 -750 -11 -320 -20 -688 -20 -877 l0 -133 -25 0 c-13 0 -46 7 -72
15 -120 38 -152 49 -218 72 -38 13 -79 29 -90 33 -11 5 -58 25 -105 43 -144
59 -208 89 -450 213 -30 16 -61 34 -68 41 -7 7 -17 13 -22 13 -9 0 -300 178
-310 189 -3 3 -39 29 -80 56 -41 28 -82 55 -90 62 -8 6 -58 45 -110 85 -273
212 -466 407 -668 678 -20 27 -132 218 -132 225 0 2 -11 28 -24 57 -13 29 -30
73 -38 98 -8 25 -20 62 -27 82 -19 59 -30 232 -21 328 5 49 18 117 30 152 22
64 77 185 92 203 5 6 23 32 42 58 33 48 121 143 192 208 64 58 180 140 324
229 74 46 140 88 145 92 6 5 28 22 50 38 58 43 56 41 110 85 61 49 146 134
182 183 16 20 30 39 33 42 12 11 60 108 74 150 26 74 21 218 -10 308 -57 165
-194 346 -453 597 -240 232 -416 409 -451 454 -46 57 -137 204 -145 233 -3 13
-10 32 -15 43 -43 98 -53 286 -21 407 9 37 20 71 24 74 4 4 7 14 7 23 0 27 72
160 112 206 45 53 57 64 108 102 58 43 185 106 235 119 17 4 35 10 40 14 6 4
26 11 45 14 19 4 44 11 55 15 11 5 47 17 80 26 33 10 68 21 77 26 10 5 23 9
29 9 23 0 269 119 314 152 5 5 46 33 90 64 139 97 229 196 290 319 28 57 30
67 30 180 0 125 -5 150 -59 266 -14 31 -41 79 -60 108 -20 29 -36 55 -36 58 0
8 -120 159 -221 281 -50 59 -97 116 -106 127 -9 11 -30 36 -47 56 -53 61 -71
83 -116 144 -25 33 -47 62 -50 65 -30 30 -170 262 -170 282 0 5 -6 24 -14 41
-47 107 -60 183 -60 332 1 150 15 229 60 332 8 17 14 35 14 41 0 8 24 55 64
127 47 84 126 184 220 280 94 95 135 132 241 213 65 50 278 166 390 212 225
93 559 133 800 95z m19567 -1319 c29 -47 40 -93 72 -313 12 -86 25 -120 58
-154 21 -22 129 -151 168 -199 19 -24 46 -58 60 -75 14 -16 46 -57 70 -90 61
-82 57 -76 90 -115 16 -19 30 -40 30 -47 0 -6 3 -13 8 -15 11 -5 95 -135 128
-198 16 -30 32 -56 37 -58 4 -2 7 -7 7 -12 0 -5 14 -38 30 -73 17 -36 30 -71
30 -79 0 -8 4 -18 8 -23 5 -6 16 -37 26 -70 9 -33 21 -73 26 -90 5 -16 15 -81
22 -142 10 -90 9 -133 -1 -214 -7 -56 -16 -109 -20 -118 -69 -146 -78 -159
-160 -241 -175 -173 -410 -299 -637 -340 -152 -27 -232 -39 -269 -40 -55 0
-85 -10 -85 -26 0 -16 18 -16 128 -5 40 4 75 4 78 0 2 -4 0 -18 -5 -31 -5 -13
-14 -45 -20 -72 -6 -26 -20 -68 -31 -92 -11 -23 -20 -46 -20 -49 0 -3 -18 -34
-39 -68 -60 -94 -112 -132 -162 -120 -158 38 -217 554 -102 883 15 41 35 91
46 110 68 124 92 143 197 151 136 12 230 51 301 126 60 63 74 87 105 180 41
127 43 358 4 558 -33 169 -91 391 -120 460 -5 11 -16 45 -26 75 -10 30 -22 59
-26 64 -4 6 -8 16 -8 24 0 23 -31 84 -62 122 -16 19 -32 40 -37 45 -17 23 -30
115 -35 252 l-5 142 27 9 c37 12 98 -5 114 -32z m-2463 -498 c78 -167 81 -172
91 -208 7 -24 7 -56 -1 -105 -10 -55 -9 -90 1 -160 21 -151 46 -295 59 -345 5
-19 17 -66 26 -105 9 -38 20 -79 25 -90 4 -11 16 -45 24 -75 21 -69 39 -114
87 -217 81 -175 187 -299 304 -359 54 -27 66 -29 170 -29 62 0 123 5 136 11
13 6 45 20 70 32 l45 20 14 -74 c7 -41 17 -77 21 -80 5 -3 9 -13 9 -21 0 -32
66 -148 115 -201 54 -60 132 -102 188 -102 101 1 229 89 345 240 23 30 45 60
50 65 13 17 82 133 112 188 26 49 30 52 71 55 24 1 53 6 64 11 21 10 65 21 65
17 0 -2 -11 -16 -25 -32 -32 -37 -115 -203 -115 -230 0 -11 -4 -24 -9 -29 -13
-14 -30 -113 -43 -243 -15 -153 6 -390 43 -472 48 -109 67 -133 122 -162 37
-18 41 -19 80 -3 23 9 61 38 85 63 59 65 152 258 152 317 0 13 5 27 11 31 13
8 11 -17 -15 -216 -57 -435 -58 -451 -59 -835 0 -395 -1 -380 57 -635 9 -36
18 -76 21 -90 3 -14 -3 -47 -13 -75 -14 -41 -28 -57 -72 -86 -49 -34 -72 -42
-185 -70 -160 -39 -530 -39 -740 0 -90 17 -150 32 -167 41 -10 6 -24 10 -31
10 -21 0 -130 60 -159 87 -59 56 -71 135 -106 663 -49 725 -51 1290 -6 1604 6
44 5 48 -12 44 -16 -3 -20 -16 -26 -83 -5 -44 -12 -110 -18 -148 -5 -37 -10
-150 -10 -252 l0 -184 -52 5 c-86 9 -184 34 -358 91 -82 26 -87 28 -174 69
-70 33 -168 103 -214 153 -70 77 -182 269 -182 313 0 8 -4 18 -9 24 -4 5 -16
43 -26 84 -9 41 -22 93 -28 115 -16 55 -16 462 0 535 7 30 17 89 24 130 14 89
23 138 44 245 16 83 22 110 50 235 9 41 19 87 22 101 3 16 -9 65 -30 125 -68
195 -93 295 -78 322 19 35 66 69 98 71 7 1 35 -45 62 -101z m1369 -375 c30
-31 53 -75 99 -193 22 -56 42 -84 67 -93 20 -8 19 -33 -4 -139 -11 -51 -11
-61 4 -83 18 -27 47 -33 63 -12 6 6 13 37 16 69 3 31 13 68 22 82 15 22 25 26
67 26 39 0 54 -5 75 -26 23 -23 25 -31 21 -89 -4 -73 -28 -109 -79 -119 -24
-4 -29 -11 -29 -33 0 -36 -28 -160 -43 -192 -16 -33 -14 -195 3 -254 l14 -47
95 -30 c51 -17 100 -30 107 -30 8 0 14 -5 14 -11 0 -12 -60 -130 -70 -139 -4
-3 -23 -32 -43 -65 -48 -79 -79 -117 -153 -190 -87 -86 -104 -97 -179 -120
-113 -34 -241 63 -309 235 -10 25 -22 52 -26 60 -4 9 -11 36 -15 60 -4 25 -11
52 -15 61 -5 8 -6 20 -2 25 7 10 74 44 87 44 22 0 196 94 225 121 71 68 164
219 146 236 -4 4 -10 3 -14 -2 -8 -12 -89 -65 -98 -65 -3 0 -20 -6 -37 -14
-69 -31 -122 -36 -229 -25 -170 19 -213 63 -229 237 -5 59 -15 157 -21 217
-19 174 -11 420 15 453 5 7 34 12 71 12 33 1 79 5 101 10 92 21 144 35 151 43
4 4 29 7 56 7 41 0 54 -5 76 -27z m-11822 -1665 c-8 -215 -30 -408 -49 -444
-20 -39 -70 -82 -105 -91 -42 -12 -246 -9 -273 3 -59 27 -107 52 -132 68 -15
10 -27 14 -27 8 0 -18 112 -112 170 -144 l55 -30 -103 7 c-57 4 -117 11 -135
16 -17 5 -49 9 -69 9 -43 0 -45 5 -26 74 9 36 9 53 -2 88 -7 24 -17 48 -21 53
-4 6 -13 49 -20 96 -11 84 -12 86 -44 98 -42 15 -51 26 -66 82 -22 84 12 139
86 139 57 0 75 -23 82 -100 6 -62 29 -95 58 -84 16 7 41 75 50 136 3 26 15 57
25 71 18 23 24 24 200 31 179 6 246 16 305 42 17 7 34 13 39 13 4 1 6 -63 2
-141z m-2767 -323 c-6 -66 -14 -154 -18 -196 -12 -130 -64 -179 -200 -188 -92
-6 -199 3 -215 19 -6 6 -16 10 -23 10 -8 0 -37 15 -66 33 -29 18 -57 36 -64
40 -18 11 12 -56 52 -117 58 -92 127 -143 240 -181 28 -10 59 -21 70 -25 11
-5 31 -12 45 -16 44 -12 50 -23 50 -93 0 -101 -37 -197 -103 -268 -74 -80
-144 -104 -310 -105 -127 0 -202 14 -224 42 -6 8 -14 29 -17 46 -15 78 -98
215 -181 297 -32 31 -56 60 -53 62 5 5 88 24 208 47 80 15 75 7 106 153 25
114 27 136 16 158 -19 41 -40 122 -47 185 -6 55 -9 62 -29 62 -49 0 -90 82
-78 160 5 36 50 70 93 70 45 0 89 -69 89 -140 0 -31 4 -40 21 -45 32 -10 58
22 65 80 3 28 13 69 21 92 14 40 18 43 67 52 28 5 125 12 215 15 94 3 168 9
174 15 6 6 20 11 32 11 11 0 31 6 45 13 l25 13 3 -91 c2 -49 -2 -144 -9 -210z
m2291 -327 l125 -13 8 -70 c6 -48 16 -80 31 -100 56 -73 206 -341 206 -367 0
-5 6 -24 14 -41 15 -35 37 -98 55 -162 30 -102 38 -185 61 -599 l12 -219 -24
-19 c-12 -10 -57 -34 -98 -54 -41 -20 -88 -42 -103 -50 -15 -7 -34 -11 -42 -8
-7 3 -16 1 -20 -5 -3 -6 -2 -11 3 -11 5 0 12 -8 16 -17 3 -10 15 -31 26 -48
11 -16 23 -38 26 -47 4 -10 10 -18 15 -18 5 0 9 -5 9 -12 0 -6 7 -19 16 -29
19 -21 13 -47 -13 -56 -10 -3 -25 -12 -33 -19 -20 -16 -118 -72 -152 -87 -16
-6 -28 -15 -28 -19 0 -4 -6 -8 -13 -8 -6 0 -33 -11 -59 -25 -26 -14 -71 -34
-100 -45 -29 -11 -62 -24 -73 -29 -11 -5 -33 -14 -50 -19 -29 -11 -51 -17
-165 -48 -128 -35 -404 -37 -486 -3 -16 7 -43 18 -61 25 -17 8 -34 14 -37 14
-3 0 -29 15 -58 34 -59 37 -146 120 -189 180 l-29 38 38 28 c109 80 207 234
264 415 42 137 53 185 68 310 6 44 15 105 20 136 6 30 10 92 10 137 0 45 3 82
8 82 4 0 16 17 27 38 11 20 36 64 55 97 59 98 100 189 100 222 0 17 -9 42 -20
56 l-21 26 21 45 c11 25 20 49 20 54 0 10 -47 22 -86 22 -13 0 -35 5 -49 12
l-26 12 58 36 c64 40 166 86 222 99 20 5 62 16 94 25 32 9 66 16 75 16 10 0
31 23 51 56 l33 56 62 -6 c33 -3 117 -11 186 -18z m-692 -314 c23 -4 42 -7 42
-8 0 -1 -18 -37 -41 -81 -23 -44 -66 -129 -96 -190 -94 -188 -98 -195 -105
-195 -4 0 -23 32 -42 70 l-36 71 55 113 c30 63 55 119 55 125 0 6 5 11 10 11
6 0 10 4 10 10 0 5 8 28 18 51 16 38 19 40 52 35 19 -3 54 -9 78 -12z m-1670
-14 c31 -17 153 -70 162 -70 37 0 200 -121 200 -149 0 -5 6 -16 13 -23 16 -17
61 -111 80 -168 36 -111 46 -167 66 -365 9 -86 26 -169 42 -197 5 -10 9 -23 9
-30 0 -24 66 -142 104 -185 38 -44 39 -45 33 -106 -6 -59 -19 -111 -38 -149
-5 -10 -9 -23 -9 -30 0 -14 -60 -139 -75 -154 -7 -9 -17 -7 -35 6 -14 9 -67
39 -118 66 -51 27 -110 66 -130 86 -20 21 -40 38 -43 38 -3 0 -11 -89 -18
-197 -6 -109 -14 -220 -16 -248 -3 -27 -12 -138 -20 -245 -26 -341 -54 -584
-75 -652 -15 -53 -77 -96 -170 -119 -85 -21 -275 -38 -430 -38 -263 0 -603 38
-723 81 -34 13 -147 142 -228 261 l-61 90 12 54 c10 48 17 58 64 92 85 63 175
156 256 266 25 33 47 62 51 65 3 3 31 44 62 91 77 116 207 375 239 474 5 17
13 39 18 50 23 57 57 172 71 240 55 271 64 527 24 711 -5 21 -3 21 33 11 56
-16 280 -20 327 -7 114 33 193 94 239 181 35 68 48 118 53 207 3 39 7 72 9 72
2 0 12 -4 22 -10z m1522 0 c0 -5 -4 -10 -10 -10 -5 0 -10 -5 -10 -12 0 -6 -31
-75 -70 -152 -48 -98 -68 -148 -63 -164 3 -12 8 -22 12 -22 4 0 15 -23 25 -51
19 -53 18 -134 -3 -203 -6 -17 -17 -58 -26 -91 -17 -63 -22 -77 -49 -138 -9
-21 -16 -44 -16 -52 0 -7 -3 -15 -7 -17 -5 -1 -17 -21 -28 -43 -30 -60 -93
-145 -144 -193 -50 -46 -107 -79 -119 -67 -21 21 -1 353 28 450 5 17 16 57 25
90 9 33 23 74 31 92 8 17 14 34 14 38 0 13 74 161 113 225 58 96 159 221 224
279 57 51 73 60 73 41z m9927 -82 c28 -10 33 -17 33 -43 -1 -16 -7 -48 -15
-70 -8 -22 -15 -50 -15 -62 0 -12 -4 -25 -10 -28 -5 -3 -10 -14 -10 -23 0 -50
-37 -139 -74 -174 -21 -21 -44 -38 -51 -38 -6 0 -17 -26 -24 -57 -34 -161 -44
-202 -58 -248 -8 -27 -18 -59 -23 -70 -4 -11 -16 -42 -25 -70 -9 -27 -22 -62
-28 -77 l-11 -26 -70 54 c-38 30 -73 54 -78 54 -15 0 -8 17 43 106 92 160 173
326 188 389 5 22 17 67 26 100 9 33 19 71 22 85 3 14 9 30 13 35 4 6 10 23 14
39 14 59 48 115 74 125 36 13 41 13 79 -1z m-12532 -120 c67 -79 112 -177 144
-313 35 -143 19 -519 -28 -695 -29 -108 -43 -157 -51 -175 -4 -11 -14 -36 -21
-55 -31 -87 -82 -196 -139 -295 -38 -67 -136 -212 -157 -234 -15 -15 -14 -1 7
109 21 108 31 272 29 470 l-3 214 65 59 c35 32 90 81 122 109 49 45 71 78 51
78 -19 0 -266 -237 -371 -356 -122 -138 -246 -324 -283 -427 -5 -15 -22 -32
-37 -38 -16 -6 -38 -16 -49 -21 -25 -12 -219 -16 -229 -6 -11 11 25 326 44
398 6 19 17 69 27 110 9 41 20 82 24 90 4 9 11 35 15 58 4 23 11 44 16 48 5 3
9 14 9 24 0 17 18 66 41 112 5 10 9 22 9 28 0 36 181 370 244 452 12 14 32 41
45 60 30 40 196 207 231 231 14 10 45 31 69 47 l44 29 56 -44 c31 -23 65 -53
76 -67z m2795 38 c0 -34 -59 -156 -139 -284 l-51 -83 0 -92 c0 -50 -4 -116
-10 -146 -5 -31 -14 -87 -20 -126 -16 -111 -42 -227 -60 -270 -5 -11 -12 -31
-16 -45 -4 -14 -17 -48 -30 -77 -13 -28 -24 -54 -24 -57 0 -12 -90 -143 -119
-173 -66 -69 -149 -119 -220 -134 -118 -25 -155 -23 -306 18 -85 23 -87 26
-61 76 27 53 63 164 80 247 5 25 6 25 113 26 97 1 114 4 168 29 63 30 124 73
163 115 44 46 112 142 112 156 0 8 5 14 10 14 6 0 10 4 10 9 0 5 14 39 30 74
17 36 30 70 30 76 0 6 4 19 9 29 5 9 17 46 26 82 9 36 21 79 26 96 5 17 9 43
9 57 0 19 7 30 23 36 16 7 50 65 122 210 86 171 102 198 113 184 6 -9 12 -31
12 -47z m6443 22 c13 -18 27 -40 30 -48 4 -8 13 -24 19 -35 18 -27 50 -81 83
-140 26 -46 28 -58 29 -162 1 -75 5 -116 14 -125 6 -6 12 -20 12 -30 0 -20 26
-105 40 -130 6 -10 10 -23 10 -29 0 -6 6 -25 14 -42 38 -89 38 -84 3 -97 -18
-6 -40 -16 -49 -21 -36 -19 -46 -10 -58 49 -7 31 -16 66 -20 77 -9 23 -29 131
-39 216 -5 44 -19 76 -61 145 -87 142 -150 271 -150 307 0 41 48 91 92 96 4 1
18 -14 31 -31z m-4473 -334 c0 -6 -67 -72 -254 -253 -43 -41 -87 -93 -98 -115
-40 -79 -134 -178 -249 -264 -130 -96 -168 -121 -173 -113 -3 5 -8 34 -12 65
-5 40 -3 56 5 56 10 0 84 52 101 71 3 3 15 12 27 20 77 53 281 245 289 273 22
77 44 101 164 171 36 21 85 50 110 66 41 25 90 38 90 23z m6576 -148 c-3 -45
-11 -124 -16 -176 -5 -52 -14 -148 -19 -212 -8 -104 -13 -122 -38 -159 -15
-23 -37 -47 -48 -53 -11 -6 -23 -14 -26 -19 -11 -15 -220 -28 -275 -17 -60 13
-144 50 -191 87 -38 28 -43 16 -16 -38 55 -114 135 -192 260 -255 l96 -48 -6
-61 c-3 -34 -11 -75 -18 -91 -35 -85 -44 -102 -73 -132 -19 -21 -50 -38 -83
-48 -46 -13 -58 -13 -111 0 -100 26 -150 60 -223 150 -65 80 -60 73 -91 134
l-27 53 25 9 c14 6 28 10 32 10 4 0 19 10 34 23 27 22 30 35 60 205 12 66 10
77 -31 219 -12 40 -21 91 -21 113 0 34 -3 40 -21 40 -12 0 -36 15 -55 34 -31
31 -34 39 -34 95 0 54 3 65 26 86 33 31 103 35 126 8 24 -30 38 -72 38 -117 0
-35 4 -45 24 -56 21 -10 27 -10 38 1 20 21 36 67 44 129 3 30 15 67 25 81 19
27 19 27 191 33 190 7 279 19 348 46 25 9 49 15 54 12 5 -3 6 -41 2 -86z
m-6466 42 c27 -29 31 -100 7 -122 -33 -30 -227 -156 -242 -156 -22 0 -110 -71
-150 -122 -80 -101 -191 -219 -320 -339 -67 -62 -249 -199 -265 -199 -5 0 -10
-3 -10 -7 0 -8 -56 -43 -69 -43 -8 0 -111 163 -111 174 0 3 8 6 18 6 9 0 58
21 107 47 50 25 100 51 112 57 13 6 23 14 23 19 0 4 5 7 10 7 14 0 233 151
260 180 3 3 23 20 45 39 109 91 206 197 235 255 22 46 40 68 73 89 24 15 49
27 56 27 6 0 11 5 11 10 0 6 4 10 8 10 5 0 44 20 88 45 43 25 82 45 86 45 4 0
16 -10 28 -22z m7194 -410 c22 -18 43 -35 46 -38 3 -3 30 -24 62 -48 56 -43
56 -43 46 -80 -5 -20 -18 -56 -29 -79 -10 -24 -19 -46 -19 -50 0 -31 -178
-355 -249 -453 -121 -168 -286 -315 -426 -379 -97 -45 -108 -50 -128 -53 -17
-3 -18 -24 -23 -323 -6 -500 -29 -655 -94 -655 -9 0 -20 -4 -25 -9 -36 -35
-676 -51 -888 -23 -171 23 -191 40 -208 184 -12 98 -3 191 36 368 22 97 32
320 14 303 -16 -16 -59 18 -187 142 -80 76 -143 151 -250 295 -70 95 -221 371
-295 540 -8 19 -29 66 -46 103 -17 38 -31 75 -31 82 0 8 -4 17 -10 20 -5 3
-10 17 -10 31 0 38 95 95 169 101 l57 5 35 -43 c100 -128 196 -220 314 -303
172 -120 283 -166 402 -166 l74 0 17 -38 c16 -34 53 -98 77 -131 35 -50 139
-140 190 -165 50 -25 73 -30 135 -30 112 -1 179 41 225 139 10 22 22 48 27 59
6 10 12 51 15 91 l6 73 66 17 c88 23 161 45 186 55 11 5 43 16 70 26 95 34
256 125 335 190 54 45 140 132 204 207 32 37 60 67 63 67 3 0 24 -15 47 -32z
m3336 -200 c8 -11 124 -68 137 -68 7 0 21 -4 31 -9 40 -21 129 -40 282 -62 96
-13 475 -14 560 0 118 18 172 32 234 61 70 31 126 75 126 96 0 65 163 -121
265 -301 47 -84 55 -100 55 -112 0 -7 5 -13 10 -13 6 0 10 -5 10 -11 0 -6 7
-27 16 -47 39 -88 44 -101 44 -111 0 -6 4 -19 10 -29 12 -21 56 -154 69 -207
5 -22 17 -67 26 -100 24 -88 56 -287 77 -485 17 -151 17 -705 0 -875 -29 -298
-63 -529 -92 -630 -5 -16 -12 -54 -16 -83 -4 -29 -11 -55 -15 -58 -5 -3 -9
-15 -9 -27 0 -25 -33 -133 -43 -143 -4 -4 -7 -14 -7 -22 0 -18 -31 -85 -43
-93 -5 -4 -24 -2 -41 3 -283 90 -590 90 -896 -1 -165 -48 -204 -56 -217 -39
-17 22 -55 222 -99 523 -9 61 -20 135 -24 165 -13 82 -39 275 -50 355 -4 39
-13 99 -19 135 -6 36 -13 83 -15 105 -23 173 -37 270 -46 330 -6 39 -18 115
-25 170 -26 180 -23 172 -73 212 -25 21 -50 43 -56 49 -53 53 -108 117 -136
159 -50 70 -67 88 -80 80 -10 -6 12 -51 47 -95 73 -93 121 -146 177 -195 l66
-59 0 -88 c0 -49 -5 -130 -10 -181 -6 -51 -15 -150 -21 -222 -30 -381 -41
-510 -49 -610 -5 -60 -9 -258 -9 -440 -1 -181 -4 -361 -8 -398 l-6 -68 -77 73
c-126 120 -216 182 -370 255 -98 47 -258 103 -294 103 -14 0 -27 4 -30 9 -3 4
-27 11 -53 15 -51 7 -98 20 -151 42 -31 13 -33 17 -27 47 3 17 10 43 15 57 5
14 23 72 40 130 17 58 35 113 41 122 5 10 9 27 9 37 0 11 4 22 9 25 5 3 12 23
16 43 4 21 10 43 14 48 4 6 15 37 25 70 10 33 22 69 26 80 5 11 23 63 40 115
17 52 35 104 40 115 5 11 30 83 55 160 26 77 50 149 55 160 5 11 16 43 25 70
10 28 21 59 25 70 5 11 23 63 40 115 17 52 35 104 40 115 5 11 16 43 25 70 10
28 21 59 25 70 4 11 15 43 25 70 9 28 20 59 25 70 25 61 50 148 60 210 6 39
15 90 20 115 5 25 12 70 15 100 3 30 10 75 15 100 5 25 17 95 25 155 9 61 20
133 26 160 10 57 29 179 36 243 5 43 5 43 27 25 11 -10 23 -21 26 -25z
m-16309 -62 c-9 -20 -21 -77 -41 -193 -4 -28 -10 -56 -13 -60 -10 -16 -28
-274 -20 -286 10 -16 31 -132 32 -179 1 -20 5 -39 10 -42 12 -8 24 -108 22
-191 -2 -63 -7 -108 -29 -245 l-7 -45 -25 45 c-44 78 -95 192 -110 245 -6 22
-19 65 -28 95 -21 71 -24 381 -4 450 28 94 44 146 52 165 26 63 98 208 129
260 34 57 36 59 39 31 2 -16 -1 -39 -7 -50z m2398 -316 c6 0 11 -4 11 -10 0
-5 6 -10 13 -10 6 -1 41 -18 77 -39 36 -22 67 -36 70 -32 20 29 68 30 122 0
10 -5 60 -14 113 -20 105 -13 227 -2 280 25 28 15 31 15 43 -2 7 -9 18 -24 25
-32 7 -8 25 -32 41 -52 15 -21 59 -60 96 -88 l68 -50 -10 -38 c-5 -20 -12 -48
-15 -62 -3 -14 -9 -29 -13 -35 -4 -5 -11 -26 -15 -45 -4 -19 -10 -39 -14 -45
-4 -5 -15 -37 -26 -70 -10 -33 -22 -65 -26 -70 -5 -6 -11 -30 -15 -53 -4 -23
-11 -45 -15 -48 -5 -3 -9 -31 -9 -64 0 -44 7 -71 27 -110 21 -41 24 -55 16
-70 -7 -9 -15 -35 -18 -56 -4 -22 -10 -48 -14 -59 -32 -79 -51 -363 -32 -480
15 -95 26 -149 46 -220 24 -89 35 -139 50 -245 19 -127 32 -203 44 -259 5 -25
12 -59 16 -76 14 -70 35 -163 44 -200 31 -126 42 -166 56 -220 9 -33 20 -73
25 -90 5 -16 14 -50 21 -75 6 -25 15 -49 19 -55 4 -5 11 -29 15 -52 4 -24 11
-45 16 -49 5 -3 9 -16 9 -29 0 -13 4 -26 9 -29 5 -3 12 -23 16 -43 4 -21 10
-42 14 -48 4 -5 15 -35 25 -65 10 -30 22 -64 27 -75 36 -82 40 -71 -65 -218
-40 -56 -75 -109 -79 -117 -8 -17 -30 -53 -37 -60 -10 -10 -61 -106 -119 -225
-76 -156 -95 -198 -117 -267 -26 -78 -41 -74 -47 10 -16 226 -78 552 -126 657
-50 110 -247 500 -253 503 -5 2 -8 9 -8 15 0 7 -7 26 -16 42 -9 17 -47 89 -84
160 -37 72 -102 198 -145 280 -43 83 -103 200 -134 260 -31 61 -58 112 -61
115 -3 3 -29 52 -58 110 -30 58 -81 158 -115 223 l-61 118 13 212 c15 271 26
408 34 427 18 41 63 496 86 870 6 102 16 215 21 253 6 37 10 87 10 111 l0 44
59 -39 c32 -21 64 -39 70 -39z m2484 -132 c9 -236 8 -648 -2 -716 -10 -69 -35
-100 -112 -139 -66 -33 -99 -43 -229 -69 -313 -63 -755 -65 -1055 -4 -65 13
-78 17 -145 48 -114 53 -139 150 -80 307 40 105 70 194 70 207 0 9 4 19 9 23
6 3 13 26 17 50 3 25 10 48 15 51 5 3 9 17 9 31 0 19 3 23 13 16 6 -6 48 -23
92 -39 78 -28 86 -29 265 -29 164 1 194 3 265 24 44 13 91 26 105 29 14 2 30
8 35 12 6 4 22 10 38 14 15 4 53 18 85 32 31 14 73 32 92 40 19 8 44 20 55 26
11 7 45 25 75 40 85 45 142 78 177 104 17 13 36 24 41 24 6 0 12 4 14 9 3 8
127 89 139 90 3 1 9 -81 12 -181z m-4613 -183 c6 -49 16 -108 21 -130 26 -99
41 -151 49 -170 5 -11 12 -31 16 -45 4 -14 17 -48 30 -77 13 -28 24 -54 24
-57 0 -2 27 -53 61 -112 124 -219 334 -461 420 -484 65 -18 75 -27 157 -150
42 -63 80 -117 84 -120 11 -9 19 -54 11 -65 -15 -20 -53 -35 -87 -35 -29 0
-41 8 -78 53 -53 62 -101 131 -150 212 -23 38 -55 74 -85 95 -204 144 -324
250 -446 392 -122 143 -235 338 -271 468 -10 36 -22 76 -27 88 -5 13 -12 64
-16 113 l-6 89 59 0 c72 0 185 18 199 31 16 16 24 -4 35 -96z m4580 -1020 c-6
-132 -14 -243 -19 -248 -5 -5 -23 16 -41 48 -54 94 -178 255 -197 255 -1 0 -3
-8 -3 -17 0 -10 21 -40 47 -68 65 -70 193 -276 193 -311 0 -7 4 -14 8 -16 5
-1 22 -30 39 -63 35 -70 138 -268 248 -480 43 -82 103 -199 134 -260 31 -60
58 -112 61 -115 5 -5 91 -173 239 -465 36 -71 69 -131 74 -133 4 -2 7 -8 7
-14 0 -5 31 -73 68 -151 80 -165 86 -180 106 -267 23 -100 24 -110 56 -505 12
-145 12 -920 0 -1115 -5 -69 -11 -241 -15 -382 l-7 -256 -25 -7 c-24 -6 -240
-31 -354 -42 -38 -4 -59 -1 -64 7 -4 6 -13 51 -21 98 -13 88 -37 226 -54 317
-5 28 -16 91 -24 140 -9 50 -20 113 -25 140 -5 28 -17 91 -26 140 -9 50 -24
126 -32 170 -24 132 -31 175 -42 275 -6 52 -16 125 -21 163 -6 37 -10 169 -10
293 l0 226 35 41 c25 29 32 44 24 51 -10 11 -36 -13 -58 -53 -8 -13 -13 -13
-45 4 -20 11 -36 23 -36 27 0 5 -5 8 -10 8 -9 0 -83 52 -220 154 -69 52 -63
47 -198 156 -224 181 -323 270 -542 489 -185 185 -228 232 -305 325 -22 27
-45 54 -50 60 -21 21 -132 172 -161 216 -16 25 -32 47 -35 50 -11 9 -89 140
-89 149 0 5 -4 11 -8 13 -15 6 -152 295 -152 321 0 9 -4 18 -9 21 -5 4 -12 24
-16 46 -4 22 -11 42 -16 46 -5 3 -9 18 -9 33 0 15 -4 31 -9 37 -18 18 -36 182
-36 329 0 139 15 282 35 330 4 11 14 41 21 67 l14 47 39 -20 c69 -33 192 -66
305 -81 123 -16 579 -22 676 -9 44 6 114 15 155 21 153 20 243 46 350 99 l55
28 3 -61 c2 -34 -2 -169 -8 -301z m-4141 -75 c43 -28 68 -57 130 -150 122
-184 165 -230 215 -230 67 0 135 56 121 100 -6 20 -160 255 -180 275 -17 17
-64 45 -76 45 -19 0 -79 32 -79 42 0 6 13 8 33 4 76 -16 210 -37 307 -48 132
-16 531 -17 630 -1 144 22 179 32 253 69 48 24 50 20 43 -68 -3 -46 -10 -148
-15 -227 -5 -79 -13 -147 -18 -152 -5 -5 -21 13 -37 43 -46 86 -178 258 -198
258 -17 0 -7 -24 25 -59 17 -20 40 -48 49 -61 56 -79 98 -141 98 -146 0 -2 11
-21 24 -42 12 -20 27 -48 31 -62 4 -14 11 -27 14 -30 4 -3 27 -45 53 -95 73
-142 252 -489 376 -725 194 -372 460 -898 505 -1000 15 -34 27 -70 27 -79 0
-9 4 -21 9 -26 11 -13 41 -167 66 -345 54 -382 101 -988 135 -1720 5 -113 12
-243 15 -290 3 -47 10 -249 16 -450 5 -201 13 -420 16 -488 l6 -122 -184 2
-183 3 -7 30 c-4 17 -15 57 -24 90 -10 33 -19 71 -22 85 -2 14 -8 34 -13 45
-5 11 -13 40 -19 65 -16 75 -52 214 -61 235 -5 11 -13 40 -19 65 -5 25 -15 63
-21 85 -6 22 -17 65 -25 95 -34 140 -57 227 -65 245 -5 11 -13 40 -19 65 -5
25 -21 90 -36 145 -15 55 -33 125 -40 155 -8 30 -19 73 -25 95 -6 22 -16 60
-21 85 -5 25 -14 53 -19 62 -6 10 -10 26 -10 37 0 10 -7 43 -16 72 -8 30 -19
70 -24 89 -5 19 -16 60 -24 90 -94 350 -118 529 -98 758 20 236 47 335 109
402 26 29 29 40 9 40 -8 0 -24 -13 -36 -30 -12 -16 -28 -30 -35 -30 -8 0 -50
24 -92 54 -43 30 -93 65 -111 78 -18 13 -39 28 -45 33 -7 6 -39 30 -72 55 -33
24 -74 56 -91 70 -18 14 -47 36 -65 50 -31 24 -168 139 -179 150 -3 3 -18 15
-33 27 -57 44 -215 191 -352 328 -140 140 -158 160 -270 290 -33 39 -62 72
-65 75 -3 3 -39 50 -80 105 -41 55 -77 102 -80 105 -3 3 -10 14 -17 25 -7 11
-43 70 -80 130 -38 61 -77 128 -88 150 -11 22 -23 42 -27 43 -5 2 -8 7 -8 12
0 5 -14 39 -31 77 -44 99 -46 103 -65 163 -9 30 -20 64 -25 75 -4 11 -14 54
-22 95 -9 41 -20 99 -26 128 -14 68 -14 261 -1 338 40 225 34 218 128 141 42
-34 101 -78 131 -97z m-299 -202 l0 -63 -23 46 c-40 78 -40 79 -7 79 l30 0 0
-62z m10791 -27 c298 -45 850 -29 975 29 35 16 47 17 73 7 17 -6 31 -14 31
-18 0 -4 12 -10 27 -14 15 -3 39 -15 54 -26 15 -10 31 -19 35 -19 14 0 516
-252 571 -287 29 -18 55 -33 59 -33 4 0 22 -11 40 -25 18 -14 35 -25 39 -25
11 0 92 -65 109 -88 17 -22 17 -24 -26 -77 -42 -53 -390 -402 -458 -460 -19
-17 -66 -57 -105 -90 -38 -33 -74 -63 -80 -67 -5 -4 -26 -20 -45 -36 -19 -15
-54 -43 -77 -61 l-43 -32 -11 28 c-20 48 -26 67 -44 118 -9 28 -20 59 -25 70
-5 11 -13 36 -19 55 -14 49 -135 403 -143 415 -3 6 -9 26 -13 45 -4 19 -11 40
-15 45 -4 6 -17 43 -30 83 -23 73 -35 91 -50 76 -7 -7 32 -135 83 -274 3 -8
19 -58 37 -110 17 -52 35 -102 39 -110 5 -9 12 -31 16 -50 4 -19 11 -41 16
-50 5 -8 27 -71 49 -140 22 -69 45 -133 50 -142 5 -9 12 -34 15 -55 6 -43 23
-29 -183 -158 -201 -125 -395 -215 -499 -231 l-43 -6 2 586 c3 571 1 616 -26
589 -3 -4 -6 -268 -6 -588 0 -499 -2 -584 -15 -595 -26 -22 -282 0 -350 29
-11 5 -43 17 -72 27 l-52 18 5 85 c3 47 9 113 14 146 5 33 12 107 15 165 3 58
10 139 15 180 5 41 14 125 20 185 5 61 13 138 16 173 6 52 4 62 -9 62 -23 0
-27 -21 -43 -215 -16 -192 -16 -190 -40 -450 -8 -93 -17 -198 -20 -232 -3 -35
-9 -65 -14 -68 -21 -13 -190 101 -300 202 l-72 67 5 135 c5 122 17 218 45 351
34 160 62 276 81 340 5 19 15 55 21 80 7 25 15 54 20 65 5 11 16 45 26 75 9
30 20 64 25 75 43 109 96 215 122 248 l21 25 41 -18 c23 -10 75 -23 116 -29z
m2026 -678 c-6 -104 -24 -231 -38 -255 -5 -10 -9 -26 -9 -36 0 -10 -6 -38 -14
-63 -8 -24 -21 -71 -31 -104 -9 -33 -20 -69 -25 -80 -5 -11 -16 -42 -25 -70
-9 -27 -21 -58 -26 -67 -5 -10 -9 -23 -9 -29 0 -6 -6 -25 -14 -42 -8 -18 -22
-54 -32 -82 -9 -27 -21 -54 -24 -60 -4 -5 -11 -21 -15 -35 -8 -25 -15 -43 -74
-173 -17 -38 -31 -70 -31 -72 0 -2 -15 -36 -34 -77 -18 -40 -46 -100 -61 -133
-14 -33 -49 -106 -77 -162 -57 -116 -51 -113 -151 -66 -77 35 -82 39 -80 59 1
11 7 53 13 94 6 41 17 127 25 190 8 63 16 126 19 140 2 14 12 88 21 165 9 77
20 167 25 200 5 33 12 98 16 145 6 79 9 87 37 110 113 93 207 180 390 362 114
113 207 211 207 217 0 6 5 11 11 11 8 0 9 -28 6 -87z m-12662 -203 c31 -159
57 -272 90 -395 15 -55 33 -122 40 -150 7 -27 25 -88 40 -135 15 -47 32 -103
37 -125 6 -22 15 -44 19 -50 5 -5 9 -19 9 -31 0 -13 4 -25 9 -28 5 -3 12 -23
16 -43 4 -21 10 -42 14 -48 5 -5 16 -35 27 -65 10 -30 22 -59 26 -65 16 -19 7
-44 -24 -66 -43 -30 -184 -172 -228 -229 -19 -25 -38 -46 -42 -48 -5 -2 -8
-10 -8 -17 0 -7 -4 -15 -8 -17 -33 -14 -213 -359 -229 -439 -3 -16 -9 -29 -14
-29 -5 0 -9 -6 -9 -14 0 -13 -43 -134 -75 -211 -7 -16 -19 -48 -26 -70 -7 -22
-17 -44 -21 -49 -4 -6 -8 -16 -8 -24 0 -8 -6 -28 -14 -45 -8 -18 -33 -84 -56
-147 -23 -63 -48 -129 -56 -147 -8 -17 -14 -38 -14 -46 0 -9 -4 -19 -10 -22
-5 -3 -10 -13 -10 -22 0 -8 -6 -29 -14 -46 -8 -18 -26 -66 -41 -107 -15 -41
-32 -79 -36 -85 -5 -5 -29 -8 -54 -6 -53 3 -193 -18 -201 -30 -17 -29 -24 4
-24 118 0 247 -61 449 -186 620 -44 59 -95 108 -189 181 -35 28 -155 82 -230
105 -100 31 -139 39 -226 44 -55 4 -89 10 -89 17 0 6 -7 103 -15 216 -8 113
-15 242 -15 286 0 81 0 82 28 87 15 3 52 12 82 20 30 9 93 25 140 36 47 12
101 26 120 31 19 6 60 14 90 20 105 18 184 35 350 75 62 14 174 50 205 64 11
6 40 19 65 30 144 66 268 165 363 291 23 30 44 57 47 60 10 10 31 45 36 63 4
9 10 17 15 17 5 0 9 4 9 9 0 4 18 41 39 80 22 39 43 82 47 94 4 12 17 45 30
74 13 28 24 57 24 62 0 6 4 19 9 29 38 69 99 319 111 457 2 22 8 1 35 -135z
m14965 -100 c8 -4 35 -11 60 -15 49 -7 56 -9 205 -55 86 -27 167 -59 225 -89
48 -25 116 -64 123 -71 37 -35 70 -700 48 -975 -15 -197 -30 -837 -38 -1608
l-6 -658 -76 7 c-42 3 -89 10 -105 15 -16 5 -50 9 -76 9 -26 0 -52 6 -58 13
-5 6 -13 41 -17 77 -3 36 -10 79 -15 95 -5 17 -14 66 -21 110 -6 44 -15 103
-19 130 -27 167 -41 254 -45 285 -3 19 -12 76 -20 125 -8 50 -16 106 -19 125
-3 19 -12 80 -21 135 -8 55 -19 132 -25 170 -17 115 -42 302 -81 595 -38 286
-81 717 -99 980 -10 158 -13 507 -4 573 6 45 7 46 38 40 17 -3 38 -9 46 -13z
m-11959 -221 c68 -67 172 -156 274 -235 115 -89 530 -354 554 -354 6 0 11 -4
11 -10 0 -5 5 -10 12 -10 6 0 19 -7 29 -16 18 -16 18 -62 0 -109 -4 -11 -18
-51 -31 -90 -29 -88 -108 -267 -170 -385 -10 -19 -50 -96 -88 -170 -109 -212
-126 -245 -132 -250 -5 -5 -16 -26 -87 -160 -25 -47 -49 -89 -53 -95 -5 -5
-19 -30 -32 -55 -14 -25 -33 -61 -44 -80 -10 -19 -22 -36 -26 -38 -5 -2 -8 -8
-8 -14 0 -6 -20 -43 -45 -82 -25 -40 -45 -75 -45 -79 0 -3 -27 -49 -60 -102
-33 -53 -60 -98 -60 -101 0 -2 -31 -55 -70 -118 -38 -63 -70 -119 -70 -125 0
-6 -4 -11 -9 -11 -5 0 -11 -8 -15 -17 -5 -18 -26 -53 -36 -63 -3 -3 -13 -21
-23 -40 -26 -52 -53 -84 -64 -77 -5 4 -13 66 -18 139 -32 574 -44 753 -55 833
-16 113 -18 309 -4 326 7 8 15 30 19 49 4 19 11 41 15 50 8 15 23 51 51 119
62 153 245 472 347 604 44 58 61 70 115 81 15 4 27 13 27 20 0 11 -8 12 -37 5
-55 -13 -61 -11 -68 14 -3 12 -10 31 -14 42 -31 75 -69 185 -105 305 -9 30
-21 64 -26 75 -4 11 -13 38 -19 60 -25 102 -57 211 -63 220 -3 6 -9 33 -13 60
l-7 50 44 -56 c24 -31 69 -81 99 -110z m13240 -1 c1 -45 36 -158 55 -180 11
-13 29 -43 39 -68 40 -92 116 -233 200 -367 47 -76 91 -147 98 -158 7 -11 14
-22 17 -25 8 -8 84 -124 89 -135 2 -5 28 -42 58 -82 29 -39 53 -75 53 -78 0
-3 5 -11 10 -18 6 -7 24 -30 40 -52 16 -22 33 -44 37 -50 5 -5 17 -23 27 -40
11 -16 23 -34 28 -40 5 -5 41 -55 81 -110 39 -55 76 -105 82 -112 5 -6 21 -28
35 -48 14 -20 36 -51 50 -68 14 -18 50 -66 80 -107 30 -41 67 -91 82 -110 33
-40 30 -36 88 -115 25 -33 63 -83 85 -111 22 -27 67 -85 100 -128 33 -43 75
-97 93 -120 17 -22 36 -45 40 -51 30 -41 77 -101 82 -105 3 -3 21 -25 40 -50
19 -25 39 -50 45 -56 38 -42 53 -64 47 -67 -4 -3 -27 -8 -52 -12 -49 -7 -176
-64 -225 -100 -16 -12 -34 -24 -40 -27 -6 -4 -10 20 -11 63 -2 139 -67 275
-185 389 -57 54 -111 85 -188 105 -49 12 -64 12 -109 0 -59 -15 -73 -24 -118
-74 -20 -21 -34 -30 -38 -23 -4 6 -13 46 -21 89 -23 123 -27 138 -39 145 -6 4
-43 8 -83 8 -60 0 -81 -5 -132 -31 -34 -18 -70 -42 -81 -56 -22 -29 -26 -24
-34 47 -4 30 -11 66 -16 80 -4 14 -16 53 -27 87 -10 35 -21 63 -25 63 -3 0 -9
12 -12 28 -8 34 -91 143 -141 182 -20 16 -63 42 -94 57 -51 25 -66 28 -161 28
-134 -1 -233 -33 -339 -113 l-54 -41 -28 39 c-16 21 -39 44 -51 51 -13 7 -25
15 -28 18 -3 4 -16 11 -29 17 l-24 10 2 250 c1 137 6 281 11 319 11 86 12 665
1 721 l-8 42 82 -5 c98 -7 177 13 241 60 24 18 92 82 151 144 59 61 111 112
116 112 4 1 7 -9 8 -21z m-16116 -28 c7 -23 198 -217 270 -275 28 -22 77 -60
110 -85 33 -25 64 -49 70 -53 38 -30 167 -117 174 -117 5 0 11 -4 13 -8 4 -10
235 -152 248 -152 6 0 10 -3 10 -7 0 -5 18 -17 40 -27 67 -32 80 -53 69 -111
-5 -27 -21 -81 -36 -120 -27 -71 -184 -387 -250 -505 -20 -36 -50 -90 -66
-120 -16 -30 -37 -66 -47 -80 -9 -14 -20 -32 -23 -40 -4 -8 -11 -22 -17 -30
-35 -54 -120 -202 -120 -210 0 -6 -4 -10 -9 -10 -5 0 -11 -8 -15 -17 -3 -10
-10 -25 -15 -33 -6 -8 -95 -152 -197 -320 -103 -168 -190 -307 -194 -310 -4
-3 -9 -12 -13 -20 -8 -18 -30 -53 -37 -60 -3 -3 -34 -50 -68 -105 -35 -55
-101 -158 -148 -230 -46 -71 -87 -137 -91 -145 -4 -8 -9 -17 -13 -20 -3 -3
-21 -30 -40 -60 -19 -30 -37 -57 -40 -60 -5 -4 -60 -89 -113 -174 -7 -11 -16
-25 -20 -30 -5 -6 -39 -58 -77 -116 -38 -58 -73 -109 -78 -115 -4 -5 -17 -25
-27 -42 -11 -18 -24 -33 -29 -33 -10 0 -82 46 -104 68 -8 6 -23 17 -35 23 -11
7 -26 16 -31 21 -6 4 -36 26 -68 48 l-56 40 25 67 c13 38 29 76 34 85 5 10 9
23 9 29 0 6 6 25 14 42 7 18 21 55 31 82 9 28 23 64 31 82 8 17 14 36 14 42 0
6 4 19 9 29 6 9 29 69 51 132 23 63 48 129 56 147 8 17 14 36 14 42 0 6 4 19
9 29 5 9 28 69 51 132 23 63 49 133 57 155 8 22 19 49 23 60 4 11 22 61 40
110 18 50 36 99 40 110 4 11 15 38 23 60 8 22 34 92 57 155 24 63 49 129 56
147 8 17 14 36 14 42 0 6 4 19 9 29 21 39 41 91 41 105 0 9 4 18 9 22 5 3 13
20 17 37 3 18 10 39 14 48 9 17 21 46 45 105 38 94 103 214 169 313 87 131
298 349 346 358 17 4 33 11 36 15 3 5 16 9 30 9 15 0 24 6 24 15 0 17 -18 19
-55 5 -36 -14 -44 -3 -83 115 -18 55 -37 109 -42 120 -5 11 -16 45 -26 75 -9
30 -20 64 -25 75 -4 11 -15 47 -25 80 -9 33 -23 79 -30 103 -8 23 -14 51 -14
61 0 10 -3 21 -7 25 -7 7 -41 131 -42 154 -1 19 17 14 24 -8z m16928 -46 c33
-6 45 -17 111 -108 40 -55 88 -126 107 -156 18 -30 36 -57 39 -60 7 -6 84
-129 93 -150 4 -8 15 -28 25 -45 38 -61 87 -152 124 -230 62 -129 251 -498
258 -505 3 -3 21 -36 40 -75 19 -38 37 -72 40 -75 3 -3 19 -32 37 -65 17 -33
44 -85 59 -115 16 -30 31 -57 34 -60 3 -3 27 -48 54 -100 27 -52 62 -117 78
-145 15 -27 38 -70 50 -95 13 -25 25 -47 28 -50 3 -3 17 -27 31 -55 14 -27 39
-75 56 -105 17 -30 45 -82 63 -115 18 -33 51 -91 72 -130 21 -38 44 -81 51
-95 6 -14 14 -27 17 -30 5 -5 25 -41 73 -135 17 -33 39 -72 49 -87 11 -16 17
-32 14 -37 -4 -5 -39 -22 -79 -37 -39 -15 -76 -31 -82 -36 -5 -4 -16 -8 -25
-8 -8 0 -26 -6 -40 -13 -58 -30 -67 -28 -115 35 -23 30 -130 163 -135 168 -3
3 -21 25 -40 50 -19 25 -37 47 -40 50 -3 3 -21 25 -40 50 -19 25 -37 47 -40
50 -3 3 -28 34 -55 70 -54 70 -67 87 -106 134 -14 17 -47 60 -75 96 -27 36
-54 72 -61 80 -19 22 -95 122 -260 340 -81 107 -152 200 -156 205 -54 69 -327
443 -422 580 -121 173 -275 407 -275 416 0 5 -4 9 -8 9 -5 0 -18 19 -31 43
-24 47 -43 79 -51 87 -3 3 -14 21 -24 40 -11 19 -30 55 -44 80 -13 25 -38 72
-54 105 -16 33 -34 68 -39 77 -15 29 -11 33 39 47 26 7 67 18 92 26 25 7 77
20 115 30 39 9 86 21 105 26 19 6 82 14 140 18 147 11 160 12 203 5z m-6910
-151 c143 -129 291 -224 414 -268 26 -9 57 -21 68 -25 11 -5 32 -11 48 -14 33
-8 35 -22 5 -29 -13 -3 -48 -13 -78 -22 -30 -9 -71 -21 -90 -25 -84 -22 -170
-42 -235 -56 -38 -9 -88 -20 -110 -25 -22 -6 -71 -16 -110 -24 -38 -7 -106
-21 -150 -30 -238 -47 -545 -103 -690 -125 -33 -5 -82 -14 -110 -19 -27 -6
-67 -12 -88 -15 l-38 -5 20 28 c11 15 23 40 27 55 l7 28 -49 -3 -49 -4 -6 38
c-3 22 -1 41 5 46 16 13 123 61 135 61 6 0 11 5 11 10 0 6 4 10 9 10 12 0 235
104 487 226 50 24 96 44 102 44 7 0 12 5 12 10 0 6 5 10 10 10 6 0 56 22 113
49 143 67 251 115 274 120 2 1 27 -20 56 -46z m1803 -95 c-4 -18 -14 -87 -22
-153 -14 -117 -35 -278 -54 -420 -5 -38 -14 -107 -19 -153 -5 -46 -14 -89 -18
-95 -5 -7 -17 -39 -27 -72 -10 -33 -22 -69 -26 -80 -19 -46 -29 -88 -25 -95 3
-5 35 -25 71 -45 70 -39 78 -55 19 -35 -21 7 -68 10 -108 8 -93 -5 -152 -34
-223 -111 -50 -53 -55 -57 -76 -45 -31 16 -221 16 -273 -1 -105 -34 -190 -86
-265 -161 -41 -41 -84 -92 -94 -112 -11 -20 -29 -41 -40 -46 -132 -63 -172
-83 -241 -126 -84 -51 -204 -138 -264 -189 -52 -45 -232 -227 -261 -264 l-24
-32 -81 83 c-84 86 -155 146 -174 146 -6 0 -11 4 -11 8 0 12 -156 88 -215 105
-140 41 -247 42 -395 1 -49 -14 -209 -86 -235 -106 -168 -131 -253 -234 -299
-363 -10 -27 -21 -59 -26 -70 -28 -64 -46 -254 -60 -603 -5 -145 -12 -267 -15
-273 -4 -5 -20 2 -38 17 -46 38 -141 78 -237 98 -14 3 -41 21 -60 39 -45 42
-186 147 -199 147 -5 0 -11 4 -13 9 -4 13 -202 114 -263 136 -27 9 -59 21 -70
25 -11 4 -39 13 -61 20 l-42 12 -5 117 c-5 123 -15 157 -67 217 -34 39 -70 61
-114 70 -33 6 -37 9 -32 31 8 29 45 113 93 211 40 81 36 80 150 56 166 -34
353 12 503 124 51 38 53 45 17 60 -24 10 -72 12 -192 9 -168 -5 -239 -14 -319
-41 -27 -9 -50 -15 -52 -13 -4 4 122 210 168 273 25 36 37 44 53 39 146 -44
333 -46 430 -5 107 46 207 106 227 134 14 21 -33 37 -124 42 -129 8 -302 -13
-423 -50 -27 -8 -50 -14 -52 -12 -5 5 131 161 231 264 56 57 102 98 104 92 2
-5 14 -10 26 -10 12 0 26 -4 31 -9 28 -28 344 -29 379 -2 6 4 23 11 39 15 25
6 27 4 27 -22 0 -67 49 -68 111 -2 55 58 90 128 113 225 20 86 45 173 56 200
63 153 61 152 305 190 55 9 111 18 125 21 14 3 63 12 110 20 47 8 105 19 130
23 25 5 86 16 135 25 99 17 178 33 410 80 86 18 206 44 260 58 22 5 66 15 97
21 31 7 60 15 64 20 4 4 18 7 30 7 13 0 33 4 46 9 13 6 57 20 98 32 41 12 79
25 85 30 5 5 63 9 130 9 75 0 146 6 190 16 72 17 202 61 220 75 6 4 29 12 50
18 91 23 211 57 220 62 6 4 30 10 55 14 25 4 50 10 55 14 6 4 44 15 85 25 41
10 84 22 95 26 23 10 52 17 79 19 16 1 17 -4 12 -31z m2279 12 c22 -5 58 -12
80 -15 164 -24 387 -134 524 -258 l38 -34 6 -104 6 -104 -27 34 c-38 49 -168
181 -177 181 -4 0 -22 12 -40 28 -46 37 -101 71 -131 78 -13 3 -24 10 -24 14
0 5 -14 12 -32 15 -17 4 -46 16 -64 26 -18 10 -50 21 -71 24 -21 4 -47 10 -58
15 -27 11 -187 30 -259 30 -75 0 -247 -19 -267 -30 -9 -4 -41 -11 -73 -15 -31
-4 -59 -11 -62 -16 -3 -5 -18 -9 -34 -9 -16 0 -31 -4 -35 -9 -3 -6 -26 -13
-50 -17 -25 -3 -45 -10 -45 -15 0 -5 -11 -9 -24 -9 -14 0 -28 -5 -31 -11 -4
-6 -13 -8 -21 -5 -8 3 -14 1 -14 -4 0 -6 -9 -10 -20 -10 -11 0 -20 -4 -20 -10
0 -5 -8 -10 -17 -10 -22 0 -286 -131 -303 -151 -3 -3 -12 -8 -20 -12 -22 -10
-50 -28 -91 -59 -20 -16 -40 -28 -43 -28 -4 0 -18 -10 -30 -22 -13 -13 -39
-34 -57 -48 -44 -31 -289 -275 -289 -286 0 -5 -11 -21 -25 -36 -14 -15 -25
-30 -25 -34 0 -3 -13 -23 -28 -43 -15 -20 -33 -47 -40 -61 -7 -14 -20 -34 -28
-44 -14 -19 -15 -19 -49 14 -19 19 -35 40 -35 48 0 7 39 68 87 134 85 120 251
297 348 374 28 21 52 41 55 44 19 19 91 70 99 70 5 0 11 4 13 8 9 22 372 222
403 222 4 0 21 6 38 14 92 39 148 59 212 75 22 5 69 17 104 26 188 46 517 64
646 35z m-6675 -14 c0 -37 -35 -166 -60 -221 -12 -27 -40 -72 -62 -100 -39
-50 -145 -145 -161 -145 -14 0 1 64 31 133 33 78 111 206 166 272 79 96 86
101 86 61z m-520 -226 c21 -36 42 -78 46 -95 4 -16 11 -36 17 -43 14 -18 21
-253 8 -272 -9 -13 -12 -12 -24 4 -31 42 -69 129 -92 206 -9 30 -20 69 -25 85
-14 48 -32 213 -25 225 9 15 46 -29 95 -110z m-2966 -227 c137 -111 286 -222
413 -309 l71 -49 5 -230 c4 -231 19 -437 36 -530 6 -27 17 -90 26 -140 9 -49
20 -108 25 -130 5 -22 12 -58 15 -80 3 -22 11 -62 17 -88 10 -42 10 -52 -7
-80 -10 -18 -22 -34 -25 -37 -4 -3 -31 -53 -59 -112 -29 -60 -56 -108 -61
-108 -5 0 -15 6 -22 13 -7 7 -39 25 -70 40 -74 35 -178 38 -235 6 -94 -52
-152 -146 -166 -267 -3 -24 -7 -46 -10 -48 -2 -2 -20 3 -40 11 -52 22 -232 20
-319 -3 -37 -10 -71 -21 -74 -25 -4 -4 -15 -7 -24 -7 -24 0 -182 -83 -275
-145 -133 -89 -285 -231 -398 -375 -18 -23 -97 -150 -97 -157 0 -3 -6 -19 -14
-36 -8 -18 -16 -40 -20 -49 -16 -51 -24 -1 -25 166 -1 101 -6 224 -11 272 -5
49 -10 122 -10 162 0 66 3 78 35 128 28 44 33 58 24 72 -9 15 -1 34 45 110 31
51 56 97 56 102 0 6 4 10 9 10 5 0 12 8 15 18 3 9 12 26 19 37 6 12 39 66 71
120 33 55 83 138 111 185 28 47 54 92 58 100 4 8 21 38 38 65 17 28 35 62 42
78 6 15 15 27 19 27 4 0 8 4 8 9 0 4 22 46 49 93 50 87 93 164 134 240 13 24
45 81 70 128 26 47 64 119 84 160 21 41 40 77 44 80 3 3 10 16 14 30 4 14 16
37 26 51 10 14 21 37 24 52 4 15 11 27 16 27 5 0 9 5 9 12 0 6 18 50 41 97 22
47 47 100 54 116 7 17 20 46 29 67 9 20 16 42 16 50 0 8 3 18 7 22 9 9 43 117
43 139 0 9 2 17 5 17 3 0 65 -48 139 -107z m4329 -93 c1 -87 -3 -127 -16 -165
-23 -66 -72 -164 -96 -194 l-19 -25 -7 57 c-7 56 9 240 25 281 4 11 16 48 25
81 9 33 21 69 26 80 5 11 14 34 20 50 l11 30 15 -40 c9 -26 15 -80 16 -155z
m-7113 -54 c41 -33 95 -76 120 -96 51 -41 320 -236 363 -263 30 -19 31 -31 6
-112 -29 -98 -40 -207 -40 -389 1 -191 10 -270 55 -451 8 -33 24 -100 36 -150
13 -49 26 -99 31 -110 4 -11 10 -31 12 -45 7 -39 29 -123 38 -145 4 -11 12
-40 18 -65 5 -25 21 -90 36 -145 15 -55 33 -125 40 -155 8 -30 19 -73 25 -95
6 -22 16 -60 21 -85 6 -25 15 -55 21 -67 8 -16 8 -30 0 -50 -6 -15 -18 -57
-27 -93 -9 -36 -21 -74 -25 -85 -5 -11 -13 -38 -18 -60 -32 -129 -60 -209 -92
-267 -6 -10 -10 -25 -10 -33 0 -37 -75 -1 -138 66 -56 59 -95 79 -157 79 -61
0 -97 -18 -170 -85 -127 -116 -186 -121 -325 -27 l-85 57 -80 0 c-88 0 -94 -3
-193 -82 -91 -74 -123 -81 -254 -57 -43 7 -44 9 -24 50 20 40 21 53 12 99 -31
161 -293 409 -588 559 -34 17 -55 33 -51 40 4 6 27 43 52 81 58 89 69 106 77
125 4 8 10 17 14 20 3 3 21 30 40 60 19 30 66 105 105 165 86 132 475 763 475
770 0 3 28 51 63 108 35 56 78 129 96 162 19 33 43 76 54 95 132 233 317 609
317 644 0 8 4 17 9 20 4 3 11 24 15 47 9 56 15 63 34 42 10 -10 51 -45 92 -77z
m7690 67 c0 -10 -81 -116 -109 -141 -44 -41 -154 -108 -201 -124 -121 -41
-160 -48 -160 -28 0 19 79 96 142 141 120 82 328 179 328 152z m-1430 -52 c0
-19 -81 -129 -127 -171 -77 -72 -121 -99 -228 -135 -76 -27 -105 -31 -105 -15
0 22 126 142 205 195 76 51 228 133 248 135 4 0 7 -4 7 -9z m7360 -31 c0 -5
-2 -10 -4 -10 -3 0 -8 5 -11 10 -3 6 -1 10 4 10 6 0 11 -4 11 -10z m-8112
-156 c30 -36 66 -103 93 -169 18 -46 31 -170 24 -242 l-7 -75 -22 21 c-20 19
-40 58 -77 146 -10 25 -33 103 -48 170 -7 28 -15 88 -17 135 l-5 85 21 -25
c12 -14 29 -34 38 -46z m8119 4 c-3 -7 -5 -2 -5 12 0 14 2 19 5 13 2 -7 2 -19
0 -25z m-6970 -218 c5 -120 -2 -152 -57 -270 -27 -58 -45 -89 -58 -102 -15
-15 -32 30 -32 83 0 105 57 345 103 434 l21 40 9 -40 c5 -22 12 -87 14 -145z
m621 44 l4 -70 -114 -11 c-127 -12 -228 -31 -242 -44 -6 -5 -14 -9 -19 -9 -12
0 80 78 171 143 60 43 87 57 122 60 77 7 74 9 78 -69z m6369 34 c-3 -8 -6 -5
-6 6 -1 11 2 17 5 13 3 -3 4 -12 1 -19z m18 -117 c3 -5 1 -12 -5 -16 -5 -3
-10 1 -10 9 0 18 6 21 15 7z m-6263 -37 c5 -3 -1 -12 -14 -18 -13 -7 -48 -26
-78 -42 -90 -49 -135 -59 -260 -59 -106 0 -200 16 -200 35 0 6 45 28 103 49
99 38 406 61 449 35z m3693 -75 c11 -16 1 -19 -13 -3 -7 8 -8 14 -3 14 5 0 13
-5 16 -11z m-550 -40 c61 -15 146 -59 188 -96 43 -38 57 -41 64 -13 7 25 14
25 63 0 30 -15 40 -26 40 -45 0 -13 -4 -27 -10 -30 -5 -3 -10 -17 -10 -31 0
-13 -4 -24 -9 -24 -5 0 -7 -8 -5 -17 2 -10 0 -25 -5 -33 -9 -13 -14 -13 -43 2
-52 27 -109 48 -129 48 -11 0 -19 5 -19 10 0 6 -37 10 -90 10 -53 0 -90 -4
-90 -10 0 -5 -9 -10 -21 -10 -21 0 -78 -28 -90 -43 -3 -4 -20 10 -37 32 -18
22 -52 54 -77 72 -45 32 -45 33 -28 58 21 34 85 91 101 91 6 0 12 4 12 9 0 10
72 28 120 30 19 0 53 -4 75 -10z m-4455 -5 c0 -6 -28 -59 -45 -83 -5 -8 -39
-44 -75 -81 -76 -77 -178 -133 -287 -158 -37 -9 -43 -8 -43 7 0 45 185 196
328 267 31 16 59 32 62 35 3 4 14 9 25 12 31 7 35 7 35 1z m4677 -71 c-3 -3
-13 1 -21 10 -8 8 -12 17 -9 20 3 3 12 -1 20 -9 9 -8 13 -18 10 -21z m-4468
-158 c9 -92 0 -212 -20 -260 -46 -114 -93 -194 -106 -181 -15 15 -7 219 11
296 21 84 51 179 74 228 21 46 30 27 41 -83z m-888 43 c50 -69 99 -167 99
-198 0 -10 5 -22 10 -25 6 -3 10 -22 10 -41 0 -19 -4 -34 -10 -34 -5 0 -10 4
-10 8 0 5 -31 40 -68 78 -69 69 -69 69 -80 147 -14 92 -15 127 -4 127 5 0 28
-28 53 -62z m4769 24 c97 -45 188 -154 241 -287 24 -61 59 -242 59 -311 l0
-49 32 50 c40 64 70 91 137 121 41 19 67 24 110 22 l56 -3 13 -70 c29 -159 33
-193 27 -255 -5 -60 -5 -63 9 -45 9 11 16 24 16 29 1 29 59 122 96 155 48 42
100 55 170 42 47 -9 104 -33 104 -43 0 -5 6 -8 13 -8 16 -1 80 -61 124 -118
82 -108 124 -258 106 -380 -11 -72 -3 -77 42 -30 34 35 113 88 165 110 82 35
97 40 160 45 78 6 180 -17 256 -58 l52 -28 17 47 c46 130 118 239 206 314 98
83 209 145 329 184 77 24 283 24 360 0 54 -17 160 -65 170 -76 3 -3 16 -10 30
-16 54 -24 205 -163 271 -249 13 -16 26 -32 29 -35 12 -10 99 -156 122 -205
20 -43 23 -47 26 -25 16 126 54 234 96 269 16 14 16 15 36 -124 9 -66 28 -182
51 -320 6 -33 17 -98 24 -145 l13 -85 -36 -60 c-20 -33 -40 -64 -44 -70 -112
-147 -219 -257 -302 -310 -29 -18 -77 -41 -107 -50 -85 -27 -115 -43 -151 -80
l-32 -35 -2678 0 c-1779 0 -2678 3 -2678 10 0 6 7 10 15 10 16 0 21 25 7 34
-5 3 -22 -2 -38 -10 -80 -42 -97 -44 -461 -44 l-353 0 0 26 c0 48 -34 125 -87
195 -29 37 -53 70 -53 73 0 9 76 -14 117 -35 25 -13 64 -41 88 -64 l44 -41 10
26 c13 36 31 255 32 395 1 216 21 420 51 515 40 127 117 257 192 323 86 75
123 101 196 137 36 18 73 36 82 41 23 12 90 28 163 40 71 12 200 4 270 -18
171 -51 355 -184 475 -342 14 -18 34 -45 46 -59 30 -38 103 -169 110 -198 11
-43 21 -25 27 50 7 74 39 164 75 208 62 74 179 96 257 46 22 -14 58 -44 80
-66 22 -23 43 -38 46 -34 8 8 24 61 44 142 7 30 25 98 39 150 14 52 30 115 37
140 6 25 16 49 20 55 5 5 9 17 9 27 0 10 4 26 9 36 5 9 24 49 42 87 76 163
192 274 341 326 119 42 239 43 328 1z m4860 10 c125 -43 232 -174 279 -342 7
-25 17 -55 22 -68 5 -12 12 -72 15 -132 4 -61 11 -110 16 -110 4 0 8 6 8 14 0
22 69 105 108 129 53 33 110 49 162 45 51 -3 47 5 81 -181 14 -82 17 -118 9
-150 -12 -53 -12 -57 -1 -57 5 0 13 10 17 23 14 46 56 129 77 153 43 50 84 67
157 66 82 0 142 -28 218 -101 124 -118 175 -241 170 -409 -2 -56 0 -102 3
-102 3 0 14 9 25 21 23 26 129 100 169 119 57 26 100 39 151 46 l52 6 34 -45
c18 -24 85 -108 148 -187 l114 -142 -2 -82 c-4 -115 -39 -307 -71 -391 -27
-68 -80 -161 -113 -197 -22 -24 -51 -60 -65 -80 l-26 -38 -1445 0 c-795 0
-1442 3 -1438 8 4 4 44 13 89 19 45 7 105 17 132 23 28 6 85 16 127 22 59 9
79 16 83 29 4 10 2 71 -4 136 -6 65 -11 165 -13 223 -4 206 14 1236 23 1279
20 93 115 257 186 321 148 135 346 187 503 132z m-598 -63 c45 -45 59 -73 40
-81 -15 -7 -72 -86 -101 -143 l-31 -59 0 171 0 171 22 -6 c12 -3 44 -27 70
-53z m-17357 9 c39 -6 75 -14 80 -18 6 -4 24 -10 41 -13 17 -3 56 -17 87 -31
31 -15 61 -26 66 -26 6 0 11 -4 11 -10 0 -5 5 -10 10 -10 6 0 36 -19 68 -42
232 -172 338 -426 336 -806 0 -73 2 -131 5 -129 3 1 20 9 36 16 17 7 38 18 49
23 10 5 61 12 112 15 90 6 94 5 94 -15 0 -11 -4 -23 -9 -27 -5 -3 -13 -20 -17
-37 -3 -18 -10 -39 -15 -48 -7 -12 -38 -99 -101 -275 -6 -16 -17 -43 -23 -60
-7 -16 -20 -52 -30 -80 -9 -27 -23 -64 -31 -82 -8 -17 -14 -36 -14 -42 0 -6
-4 -19 -9 -29 -6 -9 -24 -57 -41 -107 -18 -49 -37 -101 -44 -114 -8 -18 -8
-25 0 -28 6 -2 19 -10 29 -17 16 -12 16 -15 -9 -54 -14 -23 -26 -44 -26 -46 0
-3 -16 -32 -36 -65 l-36 -61 -318 0 -318 0 -5 93 c-4 50 -13 214 -22 362 -8
149 -18 308 -21 355 -13 215 -27 448 -34 585 -30 512 -41 699 -46 768 l-7 79
59 -7 c33 -3 91 -11 129 -17z m7890 2 c33 -6 68 -16 77 -21 10 -5 26 -9 35 -9
54 -1 241 -106 323 -182 86 -79 182 -240 214 -358 10 -36 22 -81 28 -100 5
-19 12 -122 15 -227 3 -106 7 -193 8 -193 1 0 24 12 51 27 46 25 58 27 174 27
123 1 126 1 167 -29 27 -19 52 -50 70 -85 26 -51 28 -63 27 -173 l0 -117 40
-10 c62 -16 149 -42 166 -51 8 -4 33 -15 55 -24 44 -18 45 -18 130 -65 105
-58 227 -151 326 -249 111 -112 146 -163 161 -234 14 -72 1 -102 -58 -127 -45
-20 -75 -20 -1515 -20 l-1469 0 0 23 c0 12 4 27 8 33 7 10 1598 29 2484 29
313 0 318 0 312 20 -4 11 -10 22 -14 25 -4 3 -10 14 -13 25 -3 11 -5 4 -4 -15
l2 -35 -293 -2 c-161 -1 -291 1 -288 5 2 4 -5 9 -17 9 -16 2 -18 0 -7 -7 8 -5
-76 -8 -211 -8 -127 0 -205 4 -179 8 34 5 38 7 15 8 -16 1 -59 -3 -95 -8 -36
-5 -125 -11 -198 -14 -74 -2 -136 -7 -140 -10 -3 -4 -306 -6 -673 -6 l-668 1
-3 103 c-2 57 0 117 3 132 4 16 7 93 8 171 1 82 5 144 11 148 6 3 10 22 10 41
l0 34 48 0 c26 0 56 -7 66 -15 13 -10 15 -15 6 -15 -19 0 -6 -10 20 -15 22 -4
22 -4 5 15 -12 13 -15 27 -10 49 4 17 11 31 16 31 5 0 9 5 9 10 0 18 38 53 49
46 6 -4 9 -1 5 7 -9 24 16 30 38 10 21 -18 21 -18 7 5 -12 20 -12 24 1 33 8 5
27 8 41 6 19 -2 25 1 22 10 -4 10 12 13 70 13 120 0 176 -44 142 -109 -14 -28
-14 -31 4 -40 15 -8 19 -8 17 4 -1 8 -5 17 -8 21 -9 8 2 34 13 34 5 0 9 -28 9
-61 0 -56 -1 -60 -17 -48 -15 13 -15 12 -3 -11 8 -15 15 -20 18 -12 2 6 9 12
17 12 7 0 18 7 25 15 14 17 105 21 115 5 4 -6 1 -19 -6 -28 -11 -14 -11 -15 1
-4 22 19 29 15 36 -25 8 -43 28 -67 49 -59 18 6 20 32 4 42 -6 3 -9 17 -6 30
2 14 0 21 -6 17 -6 -4 -8 2 -5 15 4 16 2 19 -10 15 -11 -5 -14 -2 -9 10 4 12
2 15 -11 11 -15 -5 -15 -4 1 9 15 13 16 19 7 36 -6 12 -15 21 -21 21 -6 0 -3
-7 5 -16 16 -16 13 -34 -5 -34 -6 0 -8 4 -5 9 3 4 -6 6 -19 3 -15 -2 -25 0
-25 7 0 14 -47 15 -55 1 -3 -5 -13 -10 -21 -10 -18 0 -20 66 -1 74 6 3 3 4 -8
1 -16 -4 -23 2 -32 24 -11 32 -80 81 -112 81 -11 0 -32 5 -46 12 -21 9 -31 9
-46 0 -10 -7 -32 -12 -49 -12 -16 0 -30 -4 -30 -9 0 -5 -16 -12 -35 -15 -19
-4 -35 -12 -35 -18 0 -6 -8 -8 -19 -5 -12 3 -18 -1 -17 -12 1 -11 -6 -15 -24
-14 -14 1 -19 -1 -12 -3 6 -3 12 -9 12 -14 0 -15 -32 -20 -49 -8 -9 7 -13 8
-9 4 4 -5 3 -15 -3 -23 -9 -9 -8 -13 0 -13 6 0 11 -7 11 -15 0 -8 -4 -15 -10
-15 -5 0 -10 -6 -10 -12 0 -9 -17 -13 -51 -13 l-50 0 2 68 c1 37 -1 70 -6 75
-5 4 -5 1 -1 -5 4 -8 2 -13 -6 -13 -10 0 -12 35 -10 167 2 93 7 172 12 177 6
6 10 103 10 226 0 119 3 285 7 368 6 151 6 151 32 160 21 7 22 9 8 15 -9 3
-17 2 -17 -3 0 -6 -5 -10 -11 -10 -16 0 -6 82 11 91 65 37 244 102 325 119 87
19 199 39 240 43 61 8 263 -1 330 -13z m-8701 -282 c-3 -90 -9 -343 -14 -563
-25 -1103 -31 -1351 -35 -1362 -4 -10 -255 -13 -1214 -13 -1076 0 -1210 2
-1215 15 -5 13 -17 14 -69 9 l-64 -6 -27 34 c-18 25 -26 47 -26 76 0 39 4 54
36 129 8 17 14 36 14 42 0 6 4 11 8 11 4 0 12 12 18 28 30 77 255 322 379 413
33 24 62 46 65 49 9 10 134 85 170 101 72 34 108 49 119 49 6 0 19 4 29 9 28
16 161 41 214 41 52 0 176 -27 192 -41 6 -5 18 -9 28 -9 16 0 18 9 18 75 0 41
4 83 9 93 4 9 17 35 27 57 24 50 88 115 113 115 11 0 23 5 26 10 8 13 99 13
123 1 9 -5 32 -15 50 -22 19 -6 54 -29 79 -50 26 -21 50 -36 54 -33 4 2 11 19
15 36 3 18 10 39 15 48 5 8 17 35 29 60 29 66 108 199 130 220 3 3 18 23 35
45 79 109 267 276 415 371 68 43 223 122 242 123 15 1 16 -14 12 -161z m10720
154 c4 -8 -105 -68 -193 -106 -14 -6 -91 -11 -175 -11 -121 0 -155 3 -173 16
l-23 16 38 19 c34 19 107 39 222 62 58 12 297 15 304 4z m3436 -22 c0 -5 -2
-10 -4 -10 -3 0 -8 5 -11 10 -3 6 -1 10 4 10 6 0 11 -4 11 -10z m1950 -110 c0
-5 -4 -10 -10 -10 -5 0 -10 5 -10 10 0 6 5 10 10 10 6 0 10 -4 10 -10z m-2909
-27 c-21 -40 -41 -92 -41 -106 0 -9 -4 -18 -9 -21 -5 -3 -12 -26 -15 -51 -4
-24 -11 -47 -17 -50 -5 -4 -9 -17 -9 -31 0 -16 -8 -28 -25 -36 -14 -6 -25 -15
-25 -20 0 -4 -7 -8 -15 -8 -8 0 -15 -3 -15 -7 0 -5 -17 -19 -38 -33 -20 -14
-57 -45 -81 -68 -37 -36 -50 -43 -75 -39 -64 9 -140 -25 -201 -90 -32 -36 -72
-118 -77 -163 -3 -22 -10 -15 -53 50 -27 41 -49 82 -49 91 -1 10 35 57 79 106
159 176 356 331 556 437 57 31 107 55 112 56 4 0 3 -8 -2 -17z m-3478 -73
c-59 -95 -189 -208 -257 -226 -15 -3 -29 -10 -32 -15 -12 -21 -31 -6 -41 33
-6 23 -9 46 -7 50 8 13 153 118 163 118 5 0 11 3 13 8 5 11 161 91 181 91 14
1 10 -10 -20 -59z m4770 -17 c-7 -2 -19 -2 -25 0 -7 3 -2 5 12 5 14 0 19 -2
13 -5z m1230 -38 c-3 -9 -8 -14 -10 -11 -3 3 -2 9 2 15 9 16 15 13 8 -4z
m1017 -49 c0 -3 -4 -8 -10 -11 -5 -3 -10 -1 -10 4 0 6 5 11 10 11 6 0 10 -2
10 -4z m-463 -78 c-2 -13 -4 -3 -4 22 0 25 2 35 4 23 2 -13 2 -33 0 -45z
m-5852 -8 c6 -10 -48 -47 -110 -74 -22 -10 -48 -22 -57 -27 -10 -5 -59 -14
-110 -20 -72 -8 -113 -8 -183 3 -49 7 -90 18 -90 23 1 27 120 66 285 93 76 13
257 14 265 2z m4231 -49 c-18 -20 -46 -18 -46 2 0 8 3 8 11 0 9 -9 15 -8 26 3
22 21 29 17 9 -5z m449 -50 c-6 -5 -25 10 -25 20 0 5 6 4 14 -3 8 -7 12 -15
11 -17z m2010 9 c3 -6 -1 -7 -9 -4 -18 7 -21 14 -7 14 6 0 13 -4 16 -10z m422
-32 c-3 -8 -6 -5 -6 6 -1 11 2 17 5 13 3 -3 4 -12 1 -19z m-10383 -122 c6 -44
3 -63 -14 -101 -12 -26 -19 -52 -16 -58 2 -7 5 -4 5 7 1 16 3 17 19 5 13 -10
14 -10 6 0 -13 14 -7 51 7 51 5 0 9 -22 9 -50 0 -27 5 -50 10 -50 6 0 10 -17
10 -37 0 -21 7 -65 15 -98 8 -33 14 -77 15 -97 0 -21 5 -38 10 -38 6 0 10 -17
10 -37 0 -21 4 -55 9 -75 9 -37 8 -38 -21 -38 -16 0 -27 4 -24 8 3 5 -1 9 -9
9 -9 0 -11 -4 -6 -11 9 -12 19 -56 28 -123 3 -24 9 -43 13 -43 4 0 11 -31 15
-70 4 -38 11 -70 16 -70 5 0 9 -15 9 -33 0 -18 5 -38 11 -44 13 -13 17 -139 6
-170 -5 -13 -5 -23 0 -23 5 0 9 10 10 21 2 23 10 35 18 27 3 -3 7 -40 8 -82 2
-71 9 -92 20 -63 3 6 6 -5 6 -25 1 -29 -3 -38 -15 -38 -10 0 -14 6 -10 15 3 8
1 15 -4 15 -6 0 -10 -7 -10 -15 0 -12 -19 -15 -107 -16 -1383 -11 -1695 -11
-1718 -3 -10 4 -16 3 -13 -2 4 -5 -13 -8 -37 -6 -35 3 -43 7 -39 20 3 10 -1 6
-9 -8 l-15 -25 761 -3 c505 -1 763 1 765 8 2 6 90 10 238 10 224 0 234 -1 234
-19 0 -11 3 -26 6 -35 6 -15 -88 -16 -1020 -16 -930 0 -1030 2 -1059 16 -56
30 -62 41 -61 123 1 69 5 83 43 156 100 190 261 360 507 533 47 33 193 105
255 126 79 26 179 46 235 46 57 0 182 -26 199 -41 23 -21 31 -4 42 84 6 52 17
105 24 118 53 92 131 149 206 149 48 0 154 -37 173 -59 3 -3 22 -19 43 -34 28
-22 37 -24 37 -12 0 8 4 23 10 33 5 9 19 40 30 67 11 28 26 59 32 70 6 11 22
41 36 67 14 26 28 45 32 43 4 -3 11 -29 14 -59z m5871 -65 c-6 -5 -25 10 -25
20 0 5 6 4 14 -3 8 -7 12 -15 11 -17z m4299 13 c3 -8 2 -12 -4 -9 -6 3 -10 10
-10 16 0 14 7 11 14 -7z m187 -7 c-10 -9 -11 -8 -5 6 3 10 9 15 12 12 3 -3 0
-11 -7 -18z m-1721 -111 c0 -3 -4 -8 -10 -11 -5 -3 -10 -1 -10 4 0 6 5 11 10
11 6 0 10 -2 10 -4z m-390 -36 c0 -5 -5 -10 -11 -10 -5 0 -7 5 -4 10 3 6 8 10
11 10 2 0 4 -4 4 -10z m-80 -49 c0 -5 -7 -12 -16 -15 -14 -5 -15 -4 -4 9 14
17 20 19 20 6z m-7405 -351 c3 -5 1 -10 -4 -10 -6 0 -11 5 -11 10 0 6 2 10 4
10 3 0 8 -4 11 -10z m-5570 -161 c54 -28 223 -135 235 -148 3 -3 27 -24 54
-45 27 -22 76 -67 108 -100 103 -105 148 -183 148 -256 0 -60 -22 -81 -98 -94
-63 -10 -992 -20 -992 -10 0 3 8 16 18 29 22 30 20 26 177 265 74 113 138 210
142 216 11 14 27 39 70 111 45 74 54 76 138 32z m19269 -52 c79 -79 133 -221
192 -504 l4 -23 -525 0 c-343 0 -525 3 -525 10 0 6 4 10 9 10 5 0 16 6 23 13
7 6 40 32 73 57 33 25 62 47 65 50 3 3 61 50 130 105 69 55 130 105 135 112 6
7 23 19 38 27 16 7 56 41 90 73 82 80 139 111 200 112 43 1 51 -3 91 -42z
m-16390 -579 c6 -5 1 -8 -11 -8 -13 0 -23 6 -23 13 0 20 14 31 19 15 2 -7 9
-16 15 -20z m1107 -65 l1057 -4 16 -72 c9 -40 21 -88 26 -107 6 -19 15 -89 20
-155 17 -195 19 -201 48 -216 27 -13 26 -13 -23 -20 -54 -8 -190 -32 -270 -47
-27 -6 -77 -15 -110 -22 -37 -7 -136 -10 -255 -8 -338 5 -485 3 -515 -9 -17
-6 -66 -19 -110 -28 -44 -10 -89 -21 -100 -25 -37 -15 -210 -42 -245 -38 l-35
3 30 15 c22 12 29 22 27 40 -5 50 -63 85 -162 100 -114 18 -242 54 -337 96
-17 8 -34 14 -38 14 -3 0 -40 16 -81 37 -51 24 -73 40 -70 50 3 7 1 99 -5 203
-6 105 -9 196 -6 204 5 12 13 12 44 3 26 -7 368 -12 1094 -14z"/>
<path d="M10472 9117 c-25 -110 -13 -259 30 -341 17 -34 92 -101 134 -120 71
-32 79 -34 144 -46 81 -15 321 -16 346 -1 23 13 25 12 -121 11 -122 -1 -273
21 -340 50 -95 41 -156 124 -177 241 -10 59 -6 105 18 227 5 24 3 32 -7 32 -9
0 -19 -20 -27 -53z"/>
<path d="M18326 2743 c-49 -13 -121 -74 -159 -135 -15 -23 -15 -27 -1 -32 19
-7 34 1 34 17 0 19 68 85 107 103 49 24 103 23 139 -3 23 -17 35 -37 49 -88
l19 -66 17 33 c55 108 177 162 279 125 94 -34 156 -88 206 -180 24 -45 28 -63
28 -132 0 -69 -5 -88 -31 -142 -29 -57 -32 -73 -12 -73 15 0 59 87 75 146 13
49 14 68 3 114 -28 130 -104 229 -215 280 -114 54 -234 35 -311 -48 -13 -14
-25 -23 -26 -21 -2 2 -13 20 -25 40 -34 56 -103 80 -176 62z"/>
<path d="M16645 2461 c-38 -9 -76 -34 -95 -62 -8 -11 -20 -27 -25 -36 -9 -12
-14 -12 -40 1 -17 9 -55 16 -87 16 -46 0 -62 -5 -86 -25 -34 -29 -67 -111 -47
-119 17 -6 35 13 35 37 0 10 13 32 29 48 23 22 39 29 70 29 40 0 111 -27 111
-42 0 -4 7 -5 15 -2 8 4 15 10 15 15 0 11 4 16 48 68 25 30 36 35 84 39 74 6
116 -15 201 -100 69 -70 87 -80 87 -52 0 22 -127 145 -170 166 -44 20 -106 29
-145 19z"/>
<path d="M21076 2373 c-37 -10 -95 -52 -127 -93 -29 -35 -34 -38 -48 -26 -24
21 -82 28 -111 14 -30 -16 -63 -97 -49 -119 8 -12 12 -11 24 5 8 11 15 28 15
39 0 50 58 61 119 23 l38 -24 22 38 c39 69 116 120 183 120 55 0 159 -56 202
-108 14 -18 21 -20 32 -11 13 10 9 18 -22 50 -56 57 -126 91 -198 95 -33 1
-70 0 -80 -3z"/>
<path d="M23345 2730 c-48 -22 -112 -88 -121 -124 -3 -15 -10 -29 -15 -32 -5
-3 -9 -14 -9 -25 0 -23 -27 -25 -58 -3 -28 20 -50 12 -93 -32 -30 -31 -34 -41
-33 -89 0 -49 19 -94 33 -79 3 3 4 33 3 65 -4 56 -2 62 24 84 31 27 43 26 107
-6 21 -10 40 -19 42 -19 3 0 5 15 5 34 0 74 57 158 134 198 30 15 53 19 91 16
81 -7 115 -49 115 -142 0 -31 2 -56 4 -56 3 0 25 13 49 29 109 74 305 59 374
-29 21 -26 12 -97 -16 -120 -3 -3 -14 -15 -24 -26 -15 -18 -16 -22 -3 -27 32
-13 89 69 89 128 0 87 -107 156 -243 158 -69 0 -137 -14 -167 -36 -18 -13 -33
1 -33 31 0 34 -29 78 -66 103 -39 25 -135 25 -189 -1z"/>
<path d="M13265 3850 c-22 -4 -43 -6 -47 -4 -4 2 -9 0 -13 -6 -3 -5 -19 -10
-35 -10 -16 0 -31 -4 -34 -9 -3 -5 -33 -12 -66 -16 -33 -4 -60 -11 -60 -16 0
-5 -11 -9 -24 -9 -14 0 -28 -5 -31 -10 -4 -6 -11 -8 -16 -5 -5 4 -9 1 -9 -4 0
-6 -12 -11 -27 -11 -14 0 -23 -3 -19 -7 10 -10 46 -11 46 -1 0 4 7 8 15 8 8 0
15 4 15 9 0 5 19 11 43 15 44 7 98 22 133 38 11 5 24 8 30 7 5 -1 27 1 48 6
26 5 46 4 59 -4 10 -7 22 -10 25 -7 3 3 0 6 -7 6 -9 0 -8 4 3 15 20 20 23 19
21 -7 -1 -12 -10 -25 -21 -29 -15 -6 -16 -8 -2 -8 9 -1 22 -3 30 -4 7 -2 10
-2 6 0 -13 8 -9 23 6 23 8 0 18 5 22 12 5 8 2 9 -9 5 -11 -4 -17 -1 -17 7 0
17 195 23 214 7 7 -6 44 -13 82 -15 38 -3 58 -3 44 0 -14 3 -32 8 -40 11 -43
17 -302 27 -365 13z"/>
<path d="M13525 3822 c0 -10 4 -22 8 -29 8 -13 39 -11 44 4 2 6 -7 8 -22 5
-20 -3 -24 -1 -19 11 3 8 1 17 -4 21 -5 3 -8 -3 -7 -12z"/>
<path d="M13240 3816 c0 -2 7 -7 16 -10 8 -3 12 -2 9 4 -6 10 -25 14 -25 6z"/>
<path d="M13609 3793 c-13 -16 -12 -17 4 -4 16 13 21 21 13 21 -2 0 -10 -8
-17 -17z"/>
<path d="M13700 3804 c8 -3 29 -12 47 -20 17 -8 36 -14 43 -14 6 0 8 -4 5 -10
-3 -5 -1 -10 5 -10 7 0 9 -8 4 -22 -6 -21 -6 -21 10 -5 21 20 26 20 48 3 14
-10 15 -15 5 -26 -10 -12 -9 -12 6 -1 12 10 17 10 17 2 0 -7 4 -10 8 -7 13 8
32 -9 37 -34 2 -12 7 -25 11 -29 4 -3 4 2 1 12 -4 9 -3 17 1 17 13 0 62 -47
55 -54 -3 -3 -1 -6 5 -6 13 0 52 -39 52 -52 0 -5 -6 -6 -12 -2 -8 4 -10 3 -5
-2 5 -5 13 -10 18 -10 5 -1 13 -2 18 -3 5 0 11 -9 15 -18 3 -10 11 -25 17 -34
7 -9 9 -25 5 -35 -7 -19 -8 -19 -22 0 -8 11 -14 16 -14 11 0 -5 9 -19 21 -31
22 -23 49 -22 49 2 0 14 -41 86 -66 114 -7 8 -26 30 -41 48 -44 50 -49 55 -84
82 -18 14 -38 30 -44 36 -6 6 -21 15 -33 18 -12 4 -22 12 -22 18 0 6 -9 8 -19
5 -13 -3 -18 0 -15 8 3 7 -6 15 -23 20 -15 3 -30 10 -33 15 -3 4 -23 11 -45
14 -22 3 -33 3 -25 0z m434 -378 c-3 -9 -10 -13 -16 -10 -5 3 -4 12 3 20 15
18 22 13 13 -10z"/>
<path d="M13160 3796 c0 -2 7 -7 16 -10 8 -3 12 -2 9 4 -6 10 -25 14 -25 6z"/>
<path d="M13228 3773 c7 -3 16 -2 19 1 4 3 -2 6 -13 5 -11 0 -14 -3 -6 -6z"/>
<path d="M12838 3723 c-10 -2 -18 -9 -18 -14 0 -5 -12 -10 -27 -10 -23 -1 -24
-2 -6 -6 12 -2 33 3 46 12 14 9 32 13 42 9 13 -5 16 -4 11 4 -7 12 -17 13 -48
5z"/>
<path d="M13820 3716 c0 -2 7 -7 16 -10 8 -3 12 -2 9 4 -6 10 -25 14 -25 6z"/>
<path d="M12928 3703 c7 -3 16 -2 19 1 4 3 -2 6 -13 5 -11 0 -14 -3 -6 -6z"/>
<path d="M12786 3667 c3 -10 9 -15 12 -12 3 3 0 11 -7 18 -10 9 -11 8 -5 -6z"/>
<path d="M12772 3604 c-1 -13 0 -24 2 -24 7 0 14 40 7 44 -4 3 -8 -6 -9 -20z"/>
<path d="M12752 3580 c0 -19 2 -27 5 -17 2 9 2 25 0 35 -3 9 -5 1 -5 -18z"/>
<path d="M14003 3554 c0 -7 6 -10 14 -7 7 3 13 8 13 12 0 4 -6 8 -13 8 -8 0
-14 -6 -14 -13z"/>
<path d="M12780 3518 c0 -7 5 -20 10 -28 8 -12 10 -9 10 13 0 15 -4 27 -10 27
-5 0 -10 -6 -10 -12z"/>
<path d="M12743 3476 c-9 -30 -9 -33 8 -29 15 4 17 11 12 32 -8 36 -8 36 -20
-3z"/>
<path d="M12760 3429 c0 -5 6 -9 14 -9 8 0 17 -6 19 -12 4 -8 6 -7 6 3 1 9 -8
19 -19 22 -11 3 -20 1 -20 -4z"/>
<path d="M14145 3400 c-3 -6 1 -13 10 -16 11 -5 15 -14 11 -30 -3 -12 -2 -26
4 -29 6 -4 7 1 3 12 -4 14 -3 15 6 7 7 -6 15 -37 18 -68 4 -38 9 -53 15 -44 5
8 7 -7 5 -39 -2 -29 0 -53 5 -53 11 0 10 -188 -2 -195 -5 -3 -7 -13 -4 -23 5
-14 3 -14 -10 2 -19 23 -21 14 -4 -17 16 -29 21 -60 8 -52 -18 11 -32 -5 -19
-22 9 -11 10 -16 1 -22 -15 -9 8 -56 28 -56 8 0 21 -6 28 -13 15 -14 32 -7 31
11 0 9 -2 8 -6 -1 -5 -14 -23 -7 -23 10 0 6 13 8 30 6 17 -3 33 -1 36 4 3 5
10 6 15 3 5 -4 9 -2 9 3 0 5 10 8 23 6 12 -1 26 -3 30 -3 5 -1 5 -6 2 -11 -4
-6 -10 -8 -14 -6 -4 3 -13 0 -21 -5 -12 -7 -10 -8 7 -6 12 2 26 6 29 10 15 15
82 7 88 -9 4 -9 9 -14 13 -11 3 4 19 -1 34 -10 22 -13 27 -22 23 -40 -4 -13
-2 -23 5 -23 6 0 8 7 5 15 -4 11 -2 13 9 9 19 -7 31 -35 18 -43 -5 -3 -3 -11
4 -18 11 -10 15 -10 18 0 3 7 6 0 6 -15 1 -15 6 -30 11 -33 16 -10 11 -23 -7
-20 -10 1 -17 8 -16 14 5 20 -6 12 -22 -16 -14 -25 -15 -25 -9 -4 4 16 3 21
-5 17 -13 -9 -15 -46 -1 -46 5 0 14 8 19 18 9 15 12 15 21 2 8 -13 10 -13 10
0 0 10 3 11 11 3 8 -8 8 -17 0 -31 -6 -11 -11 -31 -11 -44 0 -30 -28 -70 -43
-62 -7 4 -2 -4 10 -16 19 -20 31 -23 83 -21 49 2 60 -1 54 -11 -6 -10 -5 -10
9 0 20 17 103 11 99 -7 -2 -9 3 -9 20 1 l23 13 -22 3 c-13 2 -23 7 -23 12 0 5
-46 7 -102 4 -100 -5 -150 5 -121 24 6 4 19 37 28 74 16 63 16 70 -1 120 -17
53 -85 138 -110 138 -7 0 -14 5 -16 11 -2 6 -25 13 -51 16 -26 3 -50 10 -53
14 -7 12 -71 11 -92 0 -9 -5 -39 -12 -66 -16 l-48 -8 7 34 c4 19 11 39 15 44
18 23 38 295 22 295 -6 0 -13 26 -16 58 -10 98 -11 102 -18 102 -5 0 -8 11 -8
25 0 14 -4 25 -9 25 -5 0 -12 14 -16 30 -7 30 -19 38 -30 20z"/>
<path d="M12740 3387 c0 -4 -4 -5 -10 -2 -6 4 -10 -11 -10 -38 0 -29 5 -47 14
-50 11 -5 12 1 3 29 -9 30 -8 36 9 48 10 8 22 12 26 10 5 -3 8 -1 8 5 0 5 -9
9 -20 8 -11 -1 -20 -5 -20 -10z"/>
<path d="M12751 3334 c-1 -17 4 -20 24 -16 14 2 22 9 19 14 -3 5 -12 7 -19 4
-8 -3 -16 0 -19 7 -2 7 -5 2 -5 -9z"/>
<path d="M14180 3201 c0 -6 4 -13 10 -16 6 -3 7 1 4 9 -7 18 -14 21 -14 7z"/>
<path d="M14181 3161 c-8 -5 -9 -11 -3 -15 5 -3 12 1 16 9 6 17 6 18 -13 6z"/>
<path d="M14163 3050 c0 -47 2 -66 4 -42 2 23 2 61 0 85 -2 23 -4 4 -4 -43z"/>
<path d="M14165 2950 c-3 -5 1 -22 10 -37 9 -16 13 -19 9 -8 -4 11 -7 28 -8
38 0 20 -2 21 -11 7z"/>
<path d="M14487 2723 c-13 -13 -7 -33 11 -33 13 0 14 2 3 9 -7 5 -10 14 -7 20
8 12 3 15 -7 4z"/>
<path d="M13098 2713 c7 -3 16 -2 19 1 4 3 -2 6 -13 5 -11 0 -14 -3 -6 -6z"/>
<path d="M14520 2685 c-8 -9 -8 -15 -2 -15 12 0 26 19 19 26 -2 2 -10 -2 -17
-11z"/>
<path d="M13105 2670 c11 -5 29 -8 40 -8 16 0 15 2 -5 8 -34 11 -60 11 -35 0z"/>
<path d="M14483 2665 c0 -8 4 -15 9 -15 4 0 8 7 8 15 0 8 -4 15 -8 15 -5 0 -9
-7 -9 -15z"/>
<path d="M13180 2656 c0 -2 7 -7 16 -10 8 -3 12 -2 9 4 -6 10 -25 14 -25 6z"/>
<path d="M12960 2640 c-9 -6 -10 -10 -3 -10 6 0 15 5 18 10 8 12 4 12 -15 0z"/>
<path d="M13342 2636 c7 -8 15 -12 17 -11 5 6 -10 25 -20 25 -5 0 -4 -6 3 -14z"/>
<path d="M13320 2615 c13 -14 25 -23 28 -21 4 5 -35 46 -45 46 -3 0 4 -11 17
-25z"/>
<path d="M13246 2618 c3 -5 10 -6 15 -3 13 9 11 12 -6 12 -8 0 -12 -4 -9 -9z"/>
<path d="M14583 2618 c3 -9 1 -19 -6 -22 -9 -3 -9 -5 0 -5 18 -1 23 13 11 29
-8 12 -9 12 -5 -2z"/>
<path d="M13295 2590 c3 -5 8 -10 11 -10 2 0 4 5 4 10 0 6 -5 10 -11 10 -5 0
-7 -4 -4 -10z"/>
<path d="M13346 2547 c3 -10 9 -15 12 -12 3 3 0 11 -7 18 -10 9 -11 8 -5 -6z"/>
<path d="M14576 2505 c-9 -24 -7 -35 4 -35 5 0 6 8 3 18 -6 15 -5 16 13 2 18
-14 18 -14 4 5 -8 11 -15 21 -16 23 -1 2 -4 -4 -8 -13z"/>
<path d="M12903 2475 c4 -8 1 -17 -5 -21 -7 -5 -8 -2 -3 6 6 9 4 11 -4 6 -7
-5 -10 -14 -7 -22 3 -8 0 -14 -6 -14 -27 0 4 -12 37 -15 39 -2 54 10 35 28
-10 10 -12 8 -6 -8 6 -20 6 -20 -9 -1 -17 22 -20 40 -5 31 6 -3 10 -2 10 3 0
6 -7 13 -16 16 -23 9 -27 8 -21 -9z m20 -38 c3 -7 -3 -13 -14 -13 -13 0 -15 3
-7 13 6 7 12 13 13 13 2 0 5 -6 8 -13z"/>
<path d="M13201 2474 c0 -11 3 -14 6 -6 3 7 2 16 -1 19 -3 4 -6 -2 -5 -13z"/>
<path d="M12850 2410 c0 -5 5 -10 11 -10 5 0 7 5 4 10 -3 6 -8 10 -11 10 -2 0
-4 -4 -4 -10z"/>
<path d="M13582 2370 c0 -14 2 -19 5 -12 2 6 2 18 0 25 -3 6 -5 1 -5 -13z"/>
<path d="M12733 2373 c9 -2 23 -2 30 0 6 3 -1 5 -18 5 -16 0 -22 -2 -12 -5z"/>
<path d="M13345 2363 c3 -3 0 -11 -5 -18 -7 -8 -5 -12 4 -12 14 0 16 22 3 32
-4 3 -5 2 -2 -2z"/>
<path d="M12737 2343 c9 -7 22 -13 27 -13 6 0 5 4 -3 9 -11 7 -11 9 0 14 8 2
2 4 -14 3 -24 -1 -25 -2 -10 -13z"/>
<path d="M12790 2356 c0 -2 7 -7 16 -10 8 -3 12 -2 9 4 -6 10 -25 14 -25 6z"/>
<path d="M13552 2328 c-9 -24 -9 -35 0 -43 8 -7 9 -6 4 2 -4 7 -2 22 4 33 6
12 10 26 8 31 -2 5 -9 -5 -16 -23z"/>
<path d="M14584 2344 c-18 -14 -18 -15 4 -4 12 6 22 13 22 15 0 8 -5 6 -26
-11z"/>
<path d="M14867 2352 c-7 -11 28 -42 48 -42 28 0 15 17 -17 25 -18 4 -27 9
-21 12 7 2 34 -4 60 -14 27 -10 53 -17 60 -15 6 1 14 -2 18 -8 3 -5 15 -10 26
-10 11 0 17 -5 14 -10 -4 -6 -11 -8 -16 -5 -15 10 -10 -1 7 -15 12 -11 15 -11
12 0 -2 8 4 14 12 15 22 1 65 -23 65 -37 0 -6 7 -13 15 -15 13 -4 13 -3 0 7
-12 9 -9 10 15 7 17 -2 24 -2 18 0 -7 3 -13 8 -13 13 0 5 -15 12 -32 15 -18 4
-35 10 -38 14 -7 8 -104 41 -123 41 -8 0 -17 4 -19 9 -4 12 -85 24 -91 13z"/>
<path d="M13400 2340 c-9 -6 -10 -10 -3 -10 6 0 15 5 18 10 8 12 4 12 -15 0z"/>
<path d="M14940 2280 c0 -11 5 -20 10 -20 6 0 10 9 10 20 0 11 -4 20 -10 20
-5 0 -10 -9 -10 -20z"/>
<path d="M13446 2278 c3 -5 10 -6 15 -3 13 9 11 12 -6 12 -8 0 -12 -4 -9 -9z"/>
<path d="M13566 2272 c-3 -5 -17 -8 -31 -7 -14 2 -23 -1 -19 -6 3 -5 17 -7 31
-5 28 6 39 13 31 22 -3 3 -9 1 -12 -4z"/>
<path d="M12712 2220 c0 -14 2 -19 5 -12 2 6 2 18 0 25 -3 6 -5 1 -5 -13z"/>
<path d="M15212 2216 c9 -9 22 -16 29 -16 7 0 1 -10 -12 -21 -13 -12 -17 -19
-9 -17 8 3 25 -4 38 -15 12 -11 22 -15 22 -9 0 7 -4 12 -10 12 -5 0 -10 5 -10
10 0 15 16 12 34 -6 23 -22 20 -44 -4 -39 -11 2 -20 0 -20 -6 0 -5 13 -7 29
-4 26 4 29 2 26 -15 -2 -12 0 -18 6 -14 6 3 8 18 4 31 -8 31 -61 87 -70 73 -3
-5 -11 -10 -17 -10 -7 0 -7 4 0 13 14 16 3 32 -28 42 -22 7 -23 6 -8 -9z"/>
<path d="M15213 2133 c-7 -2 -13 -12 -12 -21 0 -11 2 -12 6 -4 2 6 9 12 15 12
6 0 7 -7 4 -16 -4 -10 -1 -14 6 -12 15 5 17 40 3 44 -5 1 -16 0 -22 -3z"/>
<path d="M15340 2054 c-8 -16 -16 -32 -18 -36 -2 -5 -1 -8 3 -8 3 0 10 10 14
23 8 19 10 20 15 5 3 -10 9 -26 13 -35 4 -10 7 -22 8 -28 1 -5 9 -27 18 -49
17 -38 15 -62 -4 -50 -5 3 -7 10 -4 15 7 10 -8 12 -18 2 -10 -10 25 -31 44
-26 17 5 15 20 -12 88 -13 34 -23 70 -21 78 1 4 -2 7 -7 7 -5 0 -11 10 -13 22
-3 20 -4 19 -18 -8z"/>
<path d="M15284 2036 c1 -8 5 -18 8 -22 4 -3 5 1 4 10 -1 8 -5 18 -8 22 -4 3
-5 -1 -4 -10z"/>
<path d="M12697 2013 c-4 -3 -7 -18 -6 -32 0 -23 1 -24 8 -6 l8 20 6 -20 c4
-14 5 -11 3 7 -2 30 -9 41 -19 31z"/>
<path d="M12712 1890 c0 -14 2 -19 5 -12 2 6 2 18 0 25 -3 6 -5 1 -5 -13z"/>
<path d="M14034 1844 c3 -7 -3 -14 -14 -17 -11 -3 -20 -11 -19 -19 0 -10 2
-10 6 0 2 6 14 12 24 12 11 0 18 -3 15 -8 -2 -4 21 -8 52 -8 46 -1 49 0 17 4
l-40 6 45 6 45 6 -47 4 c-25 3 -44 2 -41 -2 9 -16 -20 -7 -34 10 -8 9 -12 12
-9 6z"/>
<path d="M14670 1840 c0 -5 11 -10 25 -10 14 0 25 5 25 10 0 6 -11 10 -25 10
-14 0 -25 -4 -25 -10z"/>
<path d="M14988 1843 c7 -3 16 -2 19 1 4 3 -2 6 -13 5 -11 0 -14 -3 -6 -6z"/>
<path d="M14298 1833 c7 -3 16 -2 19 1 4 3 -2 6 -13 5 -11 0 -14 -3 -6 -6z"/>
<path d="M15138 1823 c12 -2 32 -2 45 0 12 2 2 4 -23 4 -25 0 -35 -2 -22 -4z"/>
<path d="M12706 1807 c3 -10 9 -15 12 -12 3 3 0 11 -7 18 -10 9 -11 8 -5 -6z"/>
<path d="M15018 1813 c7 -3 16 -2 19 1 4 3 -2 6 -13 5 -11 0 -14 -3 -6 -6z"/>
<path d="M14668 1803 c7 -3 16 -2 19 1 4 3 -2 6 -13 5 -11 0 -14 -3 -6 -6z"/>
<path d="M14743 1803 c15 -2 37 -2 50 0 12 2 0 4 -28 4 -27 0 -38 -2 -22 -4z"/>
<path d="M4405 2650 c-3 -5 -14 -10 -24 -10 -19 0 -91 -67 -91 -85 0 -26 -21
-32 -63 -18 -94 33 -197 -27 -197 -113 0 -18 6 -24 20 -24 12 0 20 6 19 13
-14 83 107 127 190 68 36 -26 41 -26 41 -3 0 29 27 76 61 107 26 23 41 28 84
28 95 0 150 -67 150 -180 0 -52 3 -63 16 -63 20 0 31 58 22 114 -9 58 -60 127
-113 153 -47 23 -105 30 -115 13z"/>
<path d="M12022 2902 c-7 -26 -15 -59 -19 -74 -3 -16 -9 -28 -14 -28 -5 0 -9
-7 -9 -15 0 -19 -23 -19 -63 0 -18 8 -61 21 -97 29 -57 14 -71 14 -127 -1 -35
-8 -63 -19 -63 -24 0 -4 -10 -11 -22 -15 -23 -7 -58 -40 -58 -55 0 -4 12 4 26
18 21 21 28 23 36 12 8 -11 9 -11 5 3 -5 15 17 34 36 30 4 -1 7 3 7 9 0 8 15
10 44 7 32 -4 43 -2 40 7 -3 6 2 12 10 12 8 0 12 -6 9 -13 -4 -10 6 -12 45 -7
31 3 52 1 56 -5 4 -6 13 -9 21 -5 8 3 15 0 15 -6 0 -6 9 -11 20 -11 11 0 20
-5 20 -11 0 -6 -7 -9 -15 -5 -21 8 -19 -1 3 -13 14 -7 25 -4 45 13 15 13 27
28 27 35 0 6 4 11 9 11 5 0 8 12 5 26 -4 20 -1 25 9 21 10 -4 13 2 11 21 -1
14 0 31 4 37 10 15 11 34 3 39 -4 3 -12 -16 -19 -42z"/>
<path d="M12073 2935 c0 -8 4 -15 9 -15 4 0 8 -4 8 -10 0 -5 -6 -8 -12 -6 -7
1 -10 1 -5 -1 4 -3 4 -10 0 -16 -5 -8 -2 -8 9 0 8 7 18 9 23 5 4 -4 0 8 -9 26
-18 36 -23 39 -23 17z"/>
<path d="M12030 2821 c0 -6 4 -13 10 -16 6 -3 7 1 4 9 -7 18 -14 21 -14 7z"/>
<path d="M11700 2780 c-13 -8 -12 -10 3 -10 9 0 17 5 17 10 0 12 -1 12 -20 0z"/>
<path d="M11780 2780 c-12 -8 -9 -10 13 -10 16 0 26 4 22 10 -8 12 -16 12 -35
0z"/>
<path d="M12015 2780 c-3 -5 -1 -10 4 -10 6 0 11 5 11 10 0 6 -2 10 -4 10 -3
0 -8 -4 -11 -10z"/>
<path d="M12045 2766 c-28 -16 -29 -36 -2 -35 12 0 16 3 9 6 -10 4 -9 9 4 24
19 21 18 22 -11 5z"/>
<path d="M11677 2758 c6 -10 54 -10 70 0 7 4 -8 7 -32 7 -23 0 -41 -3 -38 -7z"/>
<path d="M11803 2753 c9 -2 23 -2 30 0 6 3 -1 5 -18 5 -16 0 -22 -2 -12 -5z"/>
<path d="M12070 2749 c0 -6 4 -8 9 -5 5 4 11 1 13 -6 3 -8 6 -7 10 3 4 10 -1
15 -13 16 -10 1 -19 -3 -19 -8z"/>
<path d="M11745 2740 c-8 -13 5 -13 25 0 13 8 13 10 -2 10 -9 0 -20 -4 -23
-10z"/>
<path d="M11980 2740 c-9 -6 -10 -10 -3 -10 6 0 15 5 18 10 8 12 4 12 -15 0z"/>
<path d="M11524 2681 c-4 -17 -10 -28 -15 -25 -5 3 -9 -6 -9 -20 0 -13 -4 -26
-10 -28 -5 -1 -13 -31 -16 -65 -4 -35 -11 -63 -15 -63 -5 0 -9 -11 -9 -25 0
-30 -22 -33 -77 -10 -19 8 -46 15 -59 15 -12 0 -26 5 -29 10 -4 6 -58 10 -130
10 -72 0 -126 -4 -130 -10 -3 -5 -19 -10 -35 -10 -16 0 -31 -4 -35 -9 -3 -5
-19 -12 -35 -16 -17 -4 -30 -10 -30 -15 0 -4 -14 -10 -31 -14 -16 -3 -38 -13
-47 -22 -15 -15 -14 -16 8 -9 14 4 28 12 31 17 4 6 10 5 14 -2 6 -10 11 -8 22
6 12 16 15 17 23 4 8 -12 10 -10 10 9 0 20 3 22 26 17 20 -5 25 -4 21 6 -6 18
44 23 55 6 5 -9 8 -8 8 5 0 9 5 17 10 17 6 0 10 -4 10 -10 0 -5 5 -10 11 -10
5 0 8 4 5 9 -3 5 3 11 14 14 10 3 21 0 24 -7 3 -7 5 -7 5 2 1 6 8 12 17 12 8
0 12 -4 9 -10 -3 -5 0 -10 9 -10 8 0 16 5 18 12 3 7 9 8 18 3 8 -5 34 -8 57
-8 24 1 41 -3 38 -7 -3 -5 6 -7 21 -4 19 3 24 1 18 -8 -5 -10 -4 -11 7 0 20
18 32 15 26 -9 -4 -16 -3 -18 8 -9 11 9 23 9 52 -1 28 -9 38 -9 41 0 2 6 7 9
11 6 5 -2 16 2 26 9 14 10 15 15 5 21 -8 5 -11 4 -7 -2 4 -6 0 -13 -8 -17 -18
-7 -19 1 -2 35 8 14 12 36 10 49 -5 33 5 59 16 41 6 -10 10 -9 14 4 5 10 3 14
-5 9 -16 -10 -2 55 17 76 8 9 12 20 8 24 -4 4 -1 11 6 15 9 6 10 11 2 15 -7 5
-14 -4 -17 -23z"/>
<path d="M11589 2698 c-5 -18 -6 -38 -1 -34 7 8 12 36 6 36 -2 0 -4 -1 -5 -2z"/>
<path d="M12120 2693 c0 -5 5 -15 10 -23 7 -12 9 -10 7 8 -1 19 -17 33 -17 15z"/>
<path d="M12082 2653 c2 -14 7 -19 17 -15 11 4 13 1 8 -12 -4 -10 -7 -21 -7
-24 0 -4 -5 0 -10 8 -7 12 -9 10 -7 -8 0 -12 4 -23 7 -23 24 -6 49 -5 44 2 -2
4 -11 6 -19 2 -8 -3 -15 0 -15 5 0 18 20 24 36 11 12 -10 13 -9 8 6 -5 13 -4
16 4 11 8 -5 10 -2 6 8 -3 9 -9 16 -13 17 -29 3 -45 10 -52 21 -6 9 -8 6 -7
-9z"/>
<path d="M12140 2555 c-9 -11 -15 -12 -20 -5 -11 18 -35 -19 -35 -55 0 -31 14
-40 32 -20 4 4 2 5 -4 1 -14 -8 -15 -6 -17 34 -1 17 4 25 16 25 10 0 25 8 35
18 9 9 15 17 11 17 -3 0 -11 -7 -18 -15z"/>
<path d="M11115 2431 c-3 -5 -2 -12 3 -15 5 -3 9 1 9 9 0 17 -3 19 -12 6z"/>
<path d="M11224 2432 c3 -5 0 -13 -6 -15 -9 -4 -10 -6 -1 -6 17 -1 25 16 12
25 -7 4 -9 3 -5 -4z"/>
<path d="M11265 2420 c-3 -5 -1 -10 4 -10 6 0 11 5 11 10 0 6 -2 10 -4 10 -3
0 -8 -4 -11 -10z"/>
<path d="M10936 2407 c3 -10 9 -15 12 -12 3 3 0 11 -7 18 -10 9 -11 8 -5 -6z"/>
<path d="M12114 2386 c0 -13 4 -22 8 -20 9 6 6 44 -3 44 -4 0 -6 -11 -5 -24z"/>
<path d="M10892 2360 c0 -14 2 -19 5 -12 2 6 2 18 0 25 -3 6 -5 1 -5 -13z"/>
<path d="M10921 2364 c0 -11 3 -14 6 -6 3 7 2 16 -1 19 -3 4 -6 -2 -5 -13z"/>
<path d="M10758 2343 c-22 -24 -46 -43 -53 -43 -7 0 -91 -87 -125 -129 -14
-17 -34 -42 -45 -55 -44 -52 -53 -65 -60 -85 -3 -12 -11 -21 -16 -21 -5 0 -9
-7 -9 -15 0 -8 -5 -15 -11 -15 -5 0 -7 -5 -3 -11 4 -7 19 9 37 37 16 27 34 51
38 52 5 2 6 8 3 14 -4 6 2 8 17 4 13 -3 18 -3 12 0 -20 9 -16 21 27 64 22 22
40 45 40 51 0 6 5 7 12 3 7 -4 8 -3 4 4 -10 17 28 34 44 19 9 -8 11 -9 6 0 -3
6 -3 13 1 16 5 2 2 2 -4 1 -7 -2 -13 0 -13 5 0 14 26 31 35 23 5 -4 5 -1 1 5
-4 8 2 17 18 25 14 6 26 15 26 20 0 5 4 7 9 3 5 -3 12 3 16 14 3 11 14 22 23
24 13 4 14 5 2 6 -9 0 -23 -7 -32 -16z"/>
<path d="M12105 2340 c-4 -6 -11 -8 -16 -5 -5 4 -9 -5 -9 -18 0 -23 2 -24 25
-14 25 12 33 27 14 27 -5 0 -7 5 -4 10 3 6 4 10 1 10 -3 0 -8 -5 -11 -10z"/>
<path d="M10760 2296 c0 -2 7 -7 16 -10 8 -3 12 -2 9 4 -6 10 -25 14 -25 6z"/>
<path d="M12147 2294 c-6 -10 9 -42 16 -34 3 3 1 14 -3 24 -3 11 -9 15 -13 10z"/>
<path d="M12090 2260 c0 -5 7 -10 16 -10 8 0 12 5 9 10 -3 6 -10 10 -16 10 -5
0 -9 -4 -9 -10z"/>
<path d="M10636 2181 c-4 -5 3 -7 14 -4 23 6 26 13 6 13 -8 0 -17 -4 -20 -9z"/>
<path d="M12173 2095 c0 -8 4 -12 9 -9 5 3 6 10 3 15 -9 13 -12 11 -12 -6z"/>
<path d="M12176 2053 c-6 -14 -5 -15 5 -6 7 7 10 15 7 18 -3 3 -9 -2 -12 -12z"/>
<path d="M12200 2034 c0 -8 5 -12 10 -9 6 4 8 11 5 16 -9 14 -15 11 -15 -7z"/>
<path d="M10421 1948 c-1 -10 -5 -18 -11 -18 -5 0 -12 -11 -16 -25 -3 -14 -10
-25 -15 -25 -5 0 -9 -6 -9 -14 0 -8 -4 -16 -10 -18 -5 -1 -11 -16 -13 -33 -3
-16 -2 -23 0 -13 5 19 33 33 33 16 0 -6 3 -8 6 -5 4 4 2 13 -4 20 -9 10 -8 18
3 33 14 18 14 18 10 -4 -2 -13 0 -20 6 -16 6 3 8 8 5 11 -3 3 -1 15 5 26 8 14
8 18 0 13 -16 -10 -13 5 5 25 9 10 14 24 11 31 -4 8 -6 7 -6 -4z"/>
<path d="M20480 12365 c-131 -26 -206 -58 -300 -128 -78 -58 -170 -158 -170
-185 0 -6 -4 -12 -8 -14 -12 -5 -59 -107 -79 -173 -25 -84 -25 -286 0 -370 75
-245 263 -427 508 -489 107 -28 320 -15 409 26 79 35 101 47 156 85 55 38 103
85 157 152 32 40 96 168 103 208 4 21 11 46 16 56 17 33 12 250 -8 324 -36
137 -131 281 -239 365 -27 21 -54 42 -60 46 -16 12 -117 59 -155 72 -48 17
-187 40 -230 39 -19 -1 -64 -7 -100 -14z m441 -261 c51 -25 160 -142 191 -204
14 -30 29 -76 33 -102 6 -42 4 -49 -19 -73 -22 -22 -32 -25 -59 -20 -104 23
-229 152 -270 282 -21 64 -21 77 -1 108 20 30 73 34 125 9z"/>
<path d="M7408 1025 c-3 -3 -97 -13 -209 -23 -241 -20 -466 -21 -714 -3 -202
15 -542 10 -620 -9 -147 -35 -204 -57 -197 -78 4 -14 26 -16 50 -3 9 6 42 16
72 25 130 35 189 38 495 31 536 -12 786 -10 1000 8 110 10 242 21 293 24 68 4
92 9 92 19 0 11 -27 14 -128 14 -71 0 -131 -2 -134 -5z"/>
</g>
</svg>
