<svg xmlns:dc="http://purl.org/dc/elements/1.1/" xmlns:cc="http://creativecommons.org/ns#" xmlns:rdf="http://www.w3.org/1999/02/22-rdf-syntax-ns#" xmlns:svg="http://www.w3.org/2000/svg" xmlns="http://www.w3.org/2000/svg" xml:space="preserve" id="svg2" version="1.1" viewBox="939.72 670.56 680.56 98.88"><metadata id="metadata8"><rdf:RDF><cc:Work rdf:about=""><dc:format>image/svg+xml</dc:format><dc:type rdf:resource="http://purl.org/dc/dcmitype/StillImage"/></cc:Work></rdf:RDF></metadata><defs id="defs6"><clipPath id="clipPath18" clipPathUnits="userSpaceOnUse"><path id="path16" d="M 0,1080 H 1920 V 0 H 0 Z"/></clipPath></defs><g transform="matrix(1.3333333,0,0,-1.3333333,0,1440)" id="g10"><g id="g12"><g clip-path="url(#clipPath18)" id="g14"><g transform="translate(778.5692,560.8631)" id="g20"><path id="path22" style="fill:#29a329;fill-opacity:1;fill-rule:nonzero;stroke:none" d="m 0,0 c 0,-8.956 -7.208,-16.217 -16.099,-16.217 -8.892,0 -16.1,7.261 -16.1,16.217 0,8.956 7.208,16.217 16.1,16.217 C -7.208,16.217 0,8.956 0,0"/></g><g transform="translate(732.99,535.3555)" id="g24"><path id="path26" style="fill:#f5b400;fill-opacity:1;fill-rule:nonzero;stroke:none" d="m 0,0 h -24.199 c -2.209,0 -4,-1.791 -4,-4 v -24.434 c 0,-2.209 1.791,-4 4,-4 H 0 c 2.209,0 4,1.791 4,4 V -4 C 4,-1.791 2.209,0 0,0 M -2,-26.434 H -22.199 V -6 H -2 Z"/></g><g transform="translate(833.9528,504.7998)" id="g28"><path id="path30" style="fill:#4c5562;fill-opacity:1;fill-rule:nonzero;stroke:none" d="M 0,0 V 70.568 H 15.087 V 12.822 H 39.188 V 0 Z"/></g><g transform="translate(893.776,517.5251)" id="g32"><path id="path34" style="fill:#4c5562;fill-opacity:1;fill-rule:nonzero;stroke:none" d="m 0,0 h 8.387 c 7.905,0 13.665,1.799 17.28,5.399 3.616,3.598 5.423,9.303 5.423,17.111 0,7.777 -1.807,13.473 -5.423,17.088 -3.615,3.616 -9.375,5.423 -17.28,5.423 H 0 Z M -15.087,-12.725 V 57.843 H 4.146 c 7.583,0 13.56,-0.53 17.931,-1.591 4.369,-1.06 8.21,-2.828 11.52,-5.302 4.274,-3.181 7.511,-7.19 9.713,-12.026 2.2,-4.837 3.301,-10.34 3.301,-16.51 0,-6.266 -1.125,-11.818 -3.374,-16.654 -2.249,-4.836 -5.543,-8.829 -9.881,-11.978 -3.214,-2.314 -6.789,-3.977 -10.725,-4.989 -3.937,-1.012 -9.697,-1.518 -17.281,-1.518 H 0 Z"/></g><g transform="translate(975.4347,562.5461)" id="g36"><path id="path38" style="fill:#4c5562;fill-opacity:1;fill-rule:nonzero;stroke:none" d="M 0,0 V -57.746 H -15.136 V 0 H -32.392 V 12.822 H 17.256 L 17.256,0 Z"/></g><g transform="translate(1027.1593,528.3708)" id="g40"><path id="path42" style="fill:#4c5562;fill-opacity:1;fill-rule:nonzero;stroke:none" d="m 0,0 v 24.294 c 0,2.378 0.04,4.177 0.121,5.399 0.079,1.221 0.2,2.345 0.361,3.374 -0.611,-1.639 -1.334,-3.278 -2.169,-4.917 -0.836,-1.639 -1.752,-3.246 -2.748,-4.82 L -19.667,0 Z m -0.193,-23.571 v 13.545 h -33.982 v 6.507 L -0.193,47.72 H 12.726 V 0 h 7.423 v -10.026 h -7.423 v -13.545 z"/></g><g transform="translate(1050.6378,513.7654)" id="g44"><path id="path46" style="fill:#4c5562;fill-opacity:1;fill-rule:nonzero;stroke:none" d="m 0,0 8.387,9.496 c 1.061,-2.603 2.764,-4.652 5.11,-6.146 2.345,-1.494 4.981,-2.241 7.905,-2.241 3.535,0 6.33,0.835 8.387,2.506 2.056,1.671 3.085,3.92 3.085,6.749 0,3.341 -3.422,6.667 -10.267,9.978 -2.217,1.06 -3.969,1.928 -5.254,2.602 -6.17,3.213 -10.444,6.355 -12.822,9.424 -2.378,3.068 -3.567,6.724 -3.567,10.966 0,5.816 2.306,10.596 6.917,14.34 4.611,3.743 10.597,5.616 17.955,5.616 4.274,0 7.961,-0.747 11.063,-2.242 3.101,-1.494 5.84,-3.832 8.219,-7.013 L 36.2,45.503 c -1.06,2.056 -2.467,3.591 -4.218,4.603 -1.752,1.013 -3.864,1.519 -6.338,1.519 -2.989,0 -5.399,-0.747 -7.23,-2.242 -1.832,-1.494 -2.748,-3.43 -2.748,-5.808 0,-3.728 3.631,-7.134 10.894,-10.219 1.446,-0.611 2.554,-1.093 3.326,-1.446 5.977,-2.732 10.403,-5.817 13.28,-9.255 2.875,-3.439 4.313,-7.359 4.313,-11.761 0,-6.621 -2.257,-11.899 -6.772,-15.835 -4.515,-3.936 -10.581,-5.904 -18.196,-5.904 -5.399,0 -10.027,0.932 -13.883,2.795 C 4.772,-6.187 1.896,-3.503 0,0"/></g><g transform="translate(1101.9772,513.7654)" id="g48"><path id="path50" style="fill:#4c5562;fill-opacity:1;fill-rule:nonzero;stroke:none" d="m 0,0 8.387,9.496 c 1.061,-2.603 2.764,-4.652 5.11,-6.146 2.345,-1.494 4.981,-2.241 7.905,-2.241 3.535,0 6.33,0.835 8.387,2.506 2.056,1.671 3.085,3.92 3.085,6.749 0,3.341 -3.422,6.667 -10.267,9.978 -2.217,1.06 -3.969,1.928 -5.254,2.602 -6.17,3.213 -10.444,6.355 -12.822,9.424 -2.378,3.068 -3.567,6.724 -3.567,10.966 0,5.816 2.306,10.596 6.917,14.34 4.611,3.743 10.597,5.616 17.955,5.616 4.274,0 7.961,-0.747 11.063,-2.242 3.101,-1.494 5.84,-3.832 8.219,-7.013 L 36.2,45.503 c -1.06,2.056 -2.467,3.591 -4.218,4.603 -1.752,1.013 -3.864,1.519 -6.338,1.519 -2.989,0 -5.399,-0.747 -7.23,-2.242 -1.832,-1.494 -2.748,-3.43 -2.748,-5.808 0,-3.728 3.631,-7.134 10.894,-10.219 1.446,-0.611 2.554,-1.093 3.326,-1.446 5.977,-2.732 10.403,-5.817 13.28,-9.255 2.875,-3.439 4.313,-7.359 4.313,-11.761 0,-6.621 -2.257,-11.899 -6.772,-15.835 -4.515,-3.936 -10.581,-5.904 -18.196,-5.904 -5.399,0 -10.027,0.932 -13.883,2.795 C 4.772,-6.187 1.896,-3.503 0,0"/></g><g transform="translate(1214.6783,557.0029)" id="g52"><path id="path54" style="fill:#4c5562;fill-opacity:1;fill-rule:nonzero;stroke:none" d="m 0,0 c -3.053,2.731 -6.187,4.731 -9.399,6.001 -3.214,1.269 -6.652,1.904 -10.316,1.904 -7.519,0 -13.513,-2.249 -17.979,-6.748 -4.467,-4.5 -6.701,-10.541 -6.701,-18.124 0,-7.423 2.073,-13.312 6.219,-17.666 4.145,-4.355 9.801,-6.532 16.967,-6.532 4.081,0 7.873,0.683 11.376,2.049 3.502,1.365 6.748,3.414 9.736,6.146 l -0.096,-15.473 c -3.214,-1.897 -6.579,-3.31 -10.098,-4.242 -3.519,-0.932 -7.223,-1.398 -11.111,-1.398 -11.247,0 -20.478,3.495 -27.692,10.484 -7.215,6.989 -10.822,15.866 -10.822,26.632 0,10.732 3.616,19.586 10.846,26.559 7.23,6.973 16.549,10.46 27.957,10.46 3.824,0 7.52,-0.402 11.087,-1.205 3.567,-0.804 7.086,-2.041 10.556,-3.712 z"/></g><g transform="translate(820.1483,519.1385)" id="g56"><path id="path58" style="fill:#1f75d6;fill-opacity:1;fill-rule:nonzero;stroke:none" d="m 0,0 c 0,-8.956 -7.208,-16.217 -16.099,-16.217 -8.892,0 -16.1,7.261 -16.1,16.217 0,8.956 7.208,16.217 16.1,16.217 C -7.208,16.217 0,8.956 0,0"/></g><g transform="translate(804.049,550.646)" id="g60"><path id="path62" style="fill:#1f75d6;fill-opacity:1;fill-rule:nonzero;stroke:none" d="m 0,0 c -5.569,0 -10.099,4.583 -10.099,10.217 0,5.634 4.53,10.217 10.099,10.217 5.569,0 10.099,-4.583 10.099,-10.217 C 10.099,4.583 5.569,0 0,0 m -41.579,-41.725 c -5.569,0 -10.099,4.584 -10.099,10.218 0,5.633 4.53,10.216 10.099,10.216 5.569,0 10.099,-4.583 10.099,-10.216 0,-5.634 -4.53,-10.218 -10.099,-10.218 M -83.158,0 c -5.569,0 -10.1,4.583 -10.1,10.217 0,5.634 4.531,10.217 10.1,10.217 5.568,0 10.099,-4.583 10.099,-10.217 C -73.059,4.583 -77.59,0 -83.158,0 M 0,26.434 c -8.891,0 -16.099,-7.261 -16.099,-16.217 0,-1.991 0.372,-3.89 1.025,-5.653 l -0.011,-0.031 c -2.938,-7.36 -12.266,-18.499 -19.985,-21.204 l -0.014,-0.006 c -1.988,0.885 -4.182,1.386 -6.495,1.386 -2.314,0 -4.508,-0.501 -6.497,-1.385 l -0.013,0.005 c -7.718,2.705 -17.046,13.844 -19.984,21.204 l -0.011,0.031 c 0.652,1.763 1.025,3.662 1.025,5.653 0,8.956 -7.208,16.217 -16.099,16.217 -8.892,0 -16.1,-7.261 -16.1,-16.217 0,-8.956 7.208,-16.217 16.1,-16.217 2.612,0 5.071,0.64 7.252,1.751 l 0.016,-0.006 c 7.386,-3.215 16.689,-12.94 19.82,-20.181 l 0.009,-0.022 10e-4,10e-4 c -1.026,-2.134 -1.618,-4.52 -1.618,-7.05 0,-8.957 7.208,-16.218 16.099,-16.218 8.891,0 16.099,7.261 16.099,16.218 0,2.529 -0.591,4.916 -1.617,7.049 l 0.009,0.022 c 3.131,7.241 12.434,16.966 19.819,20.181 l 0.017,0.006 C -5.071,-5.36 -2.612,-6 0,-6 8.892,-6 16.099,1.261 16.099,10.217 16.099,19.173 8.892,26.434 0,26.434"/></g></g></g></g></svg>