<?xml version="1.0" encoding="UTF-8"?>
<svg xmlns="http://www.w3.org/2000/svg" width="199" height="199" viewBox="0 0 199 199" fill="none">
  <g clip-path="url(#clip0_768_5412)">
    <path d="M99.5 0C72.9395 0 48.8143 10.4011 30.9753 27.3643H1.60755L13.9281 48.7063C5.08657 63.5701 0 80.9412 0 99.5C0 154.457 44.5435 199 99.5 199C154.457 199 199 154.457 199 99.5C199 44.5435 154.445 0 99.5 0Z" fill="#FFF35E"></path>
    <path d="M42.6839 63.6541V67.577H31.4551V72.1357H41.7602V75.7707H31.4551V80.9772H42.9238V84.9121H26.7764V63.6541H42.6839Z" fill="black"></path>
    <path d="M54.9326 84.9121V82.7647H54.8486C54.3088 83.6525 53.613 84.3003 52.7612 84.6962C51.9095 85.092 51.0337 85.296 50.1459 85.296C49.0183 85.296 48.0825 85.152 47.3627 84.8521C46.6429 84.5522 46.0671 84.1323 45.6472 83.5925C45.2273 83.0526 44.9394 82.3808 44.7715 81.601C44.6035 80.8212 44.5195 79.9455 44.5195 78.9978V69.5324H48.7543V78.23C48.7543 79.5016 48.9583 80.4494 49.3542 81.0732C49.7501 81.697 50.4579 82.0089 51.4656 82.0089C52.6173 82.0089 53.445 81.661 53.9609 80.9772C54.4767 80.2934 54.7407 79.1657 54.7407 77.5942V69.5204H58.9635V84.9121H54.9446H54.9326Z" fill="black"></path>
    <path d="M65.3096 69.5204V72.3756H65.3696C65.5735 71.8958 65.8375 71.4519 66.1734 71.056C66.5093 70.6481 66.8932 70.3002 67.337 70.0123C67.7689 69.7244 68.2368 69.4964 68.7406 69.3405C69.2325 69.1845 69.7484 69.1006 70.2882 69.1006C70.5641 69.1006 70.876 69.1485 71.2119 69.2445V73.1794C71.008 73.1434 70.7801 73.1074 70.4921 73.0714C70.2162 73.0354 69.9403 73.0235 69.6884 73.0235C68.9086 73.0235 68.2608 73.1554 67.7209 73.4073C67.1811 73.6713 66.7492 74.0192 66.4253 74.463C66.1014 74.9069 65.8615 75.4348 65.7295 76.0226C65.5855 76.6224 65.5255 77.2583 65.5255 77.9541V84.8881H61.3027V69.4964H65.3216L65.3096 69.5204Z" fill="black"></path>
    <path d="M75.8788 79.0338C75.9988 79.6216 76.2027 80.1494 76.4907 80.6173C76.7786 81.0852 77.1625 81.4571 77.6423 81.733C78.1222 82.0089 78.71 82.1529 79.4298 82.1529C80.1496 82.1529 80.7495 82.0089 81.2293 81.733C81.7212 81.4571 82.1051 81.0852 82.393 80.6173C82.6809 80.1494 82.8849 79.6216 83.0048 79.0338C83.1248 78.4459 83.1848 77.8461 83.1848 77.2343C83.1848 76.6224 83.1248 76.0106 83.0048 75.4228C82.8849 74.8229 82.6809 74.3071 82.393 73.8392C82.1051 73.3833 81.7212 73.0114 81.2293 72.7235C80.7375 72.4356 80.1376 72.2917 79.4298 72.2917C78.722 72.2917 78.1222 72.4356 77.6423 72.7235C77.1625 73.0114 76.7786 73.3833 76.4907 73.8392C76.2027 74.2951 75.9988 74.8229 75.8788 75.4228C75.7589 76.0226 75.6989 76.6224 75.6989 77.2343C75.6989 77.8461 75.7589 78.4459 75.8788 79.0338ZM72.0399 73.8872C72.4118 72.8795 72.9517 72.0277 73.6475 71.3319C74.3433 70.6241 75.171 70.0843 76.1428 69.6884C77.1145 69.3045 78.2062 69.1125 79.4178 69.1125C80.6295 69.1125 81.7212 69.3045 82.7049 69.6884C83.6886 70.0723 84.5284 70.6241 85.2242 71.3319C85.92 72.0397 86.4599 72.8915 86.8317 73.8872C87.2036 74.8949 87.3956 76.0106 87.3956 77.2343C87.3956 78.4579 87.2036 79.5736 86.8317 80.5693C86.4599 81.565 85.92 82.4048 85.2242 83.1126C84.5284 83.8204 83.6886 84.3603 82.7049 84.7321C81.7212 85.104 80.6295 85.296 79.4178 85.296C78.2062 85.296 77.1145 85.104 76.1428 84.7321C75.171 84.3603 74.3313 83.8084 73.6475 83.1126C72.9517 82.4048 72.4118 81.565 72.0399 80.5693C71.668 79.5736 71.4761 78.4699 71.4761 77.2343C71.4761 75.9986 71.668 74.8829 72.0399 73.8872Z" fill="black"></path>
    <path d="M98.6005 81.721C99.0683 81.4451 99.4402 81.0852 99.7281 80.6293C100.016 80.1854 100.22 79.6576 100.34 79.0697C100.46 78.4699 100.52 77.8701 100.52 77.2583C100.52 76.6464 100.46 76.0346 100.328 75.4468C100.196 74.8469 99.9801 74.3191 99.6921 73.8512C99.3922 73.3833 99.0083 73.0114 98.5405 72.7235C98.0726 72.4356 97.5088 72.2917 96.8249 72.2917C96.1411 72.2917 95.5533 72.4356 95.0854 72.7235C94.6176 73.0114 94.2457 73.3833 93.9578 73.8392C93.6698 74.2951 93.4659 74.8229 93.3459 75.4228C93.226 76.0226 93.166 76.6344 93.166 77.2703C93.166 77.9061 93.226 78.4939 93.3579 79.0817C93.4899 79.6816 93.6938 80.1974 93.9817 80.6413C94.2697 81.0852 94.6536 81.4451 95.1334 81.733C95.6133 82.0089 96.1891 82.1529 96.8609 82.1529C97.5327 82.1529 98.1326 82.0089 98.6005 81.733M93.106 69.5204V71.4879H93.166C93.6818 70.6481 94.3417 70.0483 95.1334 69.6764C95.9252 69.3045 96.801 69.1125 97.7487 69.1125C98.9604 69.1125 100.004 69.3405 100.88 69.7964C101.756 70.2522 102.475 70.8641 103.051 71.6078C103.627 72.3636 104.047 73.2394 104.335 74.2471C104.611 75.2548 104.755 76.2985 104.755 77.3902C104.755 78.4219 104.611 79.4176 104.335 80.3654C104.059 81.3131 103.639 82.1649 103.075 82.8967C102.511 83.6285 101.804 84.2163 100.964 84.6482C100.124 85.0801 99.1283 85.308 98.0006 85.308C97.0529 85.308 96.1651 85.116 95.3614 84.7321C94.5576 84.3483 93.8978 83.7724 93.3819 83.0166H93.3219V90.3106H89.0991V69.5204H93.118H93.106Z" fill="black"></path>
    <path d="M115.695 73.1194C115.191 72.5676 114.424 72.2797 113.392 72.2797C112.72 72.2797 112.156 72.3996 111.712 72.6276C111.268 72.8555 110.909 73.1434 110.645 73.4793C110.381 73.8152 110.189 74.1751 110.081 74.547C109.973 74.9189 109.913 75.2668 109.889 75.5547H116.763C116.559 74.487 116.211 73.6713 115.707 73.1074M110.933 81.2052C111.568 81.817 112.48 82.1289 113.668 82.1289C114.52 82.1289 115.251 81.913 115.875 81.4931C116.487 81.0612 116.871 80.6173 117.003 80.1375H120.722C120.122 81.9849 119.21 83.3046 117.987 84.0963C116.751 84.8881 115.263 85.284 113.524 85.284C112.312 85.284 111.22 85.0921 110.249 84.7082C109.277 84.3243 108.449 83.7724 107.777 83.0526C107.106 82.3328 106.578 81.4811 106.218 80.4973C105.846 79.5016 105.666 78.4099 105.666 77.2223C105.666 76.0346 105.858 75.0029 106.23 74.0072C106.602 73.0115 107.142 72.1597 107.837 71.4279C108.533 70.7081 109.361 70.1323 110.321 69.7124C111.28 69.2925 112.348 69.0886 113.524 69.0886C114.831 69.0886 115.971 69.3405 116.943 69.8444C117.915 70.3482 118.718 71.032 119.342 71.8838C119.966 72.7355 120.422 73.7073 120.698 74.799C120.974 75.8906 121.07 77.0303 120.998 78.218H109.889C109.949 79.5856 110.297 80.5813 110.933 81.1932" fill="black"></path>
    <path d="M131.987 77.3782C131.807 77.5342 131.579 77.6661 131.315 77.7501C131.051 77.8341 130.763 77.9181 130.451 77.9781C130.139 78.038 129.815 78.086 129.48 78.122C129.144 78.158 128.808 78.206 128.472 78.266C128.16 78.326 127.836 78.4099 127.536 78.5059C127.224 78.6019 126.96 78.7338 126.732 78.9018C126.504 79.0697 126.324 79.2857 126.18 79.5376C126.036 79.8016 125.977 80.1255 125.977 80.5213C125.977 80.8932 126.048 81.2172 126.18 81.4691C126.324 81.733 126.504 81.9249 126.744 82.0809C126.984 82.2249 127.26 82.3328 127.584 82.3928C127.908 82.4528 128.232 82.4768 128.568 82.4768C129.408 82.4768 130.043 82.3328 130.499 82.0569C130.955 81.781 131.291 81.4451 131.507 81.0612C131.723 80.6773 131.855 80.2814 131.915 79.8855C131.963 79.4896 131.987 79.1657 131.987 78.9378V77.3542V77.3782ZM122.222 74.2471C122.282 73.2514 122.533 72.4356 122.965 71.7758C123.397 71.116 123.961 70.6001 124.633 70.1922C125.305 69.7964 126.072 69.5084 126.912 69.3405C127.752 69.1725 128.604 69.0886 129.456 69.0886C130.235 69.0886 131.015 69.1485 131.807 69.2565C132.599 69.3645 133.33 69.5804 133.978 69.8923C134.638 70.2042 135.166 70.6481 135.586 71.212C136.006 71.7758 136.21 72.5316 136.21 73.4553V81.4691C136.21 82.1649 136.246 82.8247 136.33 83.4605C136.414 84.0963 136.546 84.5762 136.749 84.8881H132.467C132.383 84.6482 132.323 84.4083 132.275 84.1563C132.227 83.9044 132.191 83.6525 132.167 83.4005C131.495 84.0963 130.703 84.5762 129.779 84.8641C128.868 85.14 127.932 85.284 126.984 85.284C126.252 85.284 125.569 85.2 124.933 85.0201C124.297 84.8401 123.745 84.5642 123.265 84.1803C122.785 83.8084 122.414 83.3286 122.15 82.7527C121.886 82.1769 121.742 81.4931 121.742 80.7013C121.742 79.8255 121.898 79.1057 122.21 78.5419C122.521 77.9781 122.917 77.5222 123.397 77.1863C123.877 76.8504 124.441 76.5984 125.065 76.4305C125.689 76.2625 126.324 76.1306 126.96 76.0226C127.596 75.9266 128.22 75.8427 128.832 75.7827C129.444 75.7227 129.995 75.6387 130.463 75.5188C130.943 75.3988 131.315 75.2308 131.591 75.0029C131.867 74.775 131.999 74.4391 131.975 74.0072C131.975 73.5513 131.903 73.1914 131.747 72.9155C131.603 72.6516 131.399 72.4356 131.147 72.2917C130.895 72.1477 130.607 72.0397 130.283 71.9917C129.959 71.9438 129.599 71.9198 129.228 71.9198C128.388 71.9198 127.74 72.0997 127.26 72.4596C126.78 72.8195 126.504 73.4073 126.432 74.2471H122.21H122.222Z" fill="black"></path>
    <path d="M142.604 69.5204V71.6678H142.688C143.228 70.7801 143.924 70.1203 144.775 69.7124C145.627 69.3045 146.503 69.1006 147.391 69.1006C148.518 69.1006 149.454 69.2565 150.174 69.5564C150.894 69.8683 151.469 70.2882 151.889 70.8401C152.309 71.3919 152.597 72.0517 152.765 72.8315C152.933 73.6113 153.017 74.487 153.017 75.4348V84.9001H148.782V76.2026C148.782 74.9309 148.578 73.9832 148.182 73.3594C147.786 72.7355 147.079 72.4236 146.071 72.4236C144.919 72.4236 144.091 72.7715 143.576 73.4553C143.06 74.1391 142.796 75.2668 142.796 76.8384V84.9121H138.561V69.5204H142.58H142.604Z" fill="black"></path>
    <path d="M31.4191 90.4186L40.2966 104.683H40.3565V90.4186H44.7353V111.689H40.0566L31.2151 97.4486H31.1551V111.689H26.7764V90.4186H31.4191Z" fill="black"></path>
    <path d="M56.7201 99.8959C56.2162 99.344 55.4485 99.0561 54.4167 99.0561C53.7449 99.0561 53.1811 99.1761 52.7372 99.404C52.2933 99.632 51.9334 99.9199 51.6695 100.256C51.4056 100.592 51.2136 100.952 51.1057 101.323C50.9977 101.695 50.9257 102.043 50.9137 102.331H57.7878C57.5839 101.264 57.236 100.448 56.7321 99.8839M51.9574 107.982C52.5933 108.593 53.505 108.905 54.6927 108.905C55.5444 108.905 56.2762 108.689 56.9 108.27C57.5119 107.838 57.8958 107.394 58.0277 106.914H61.7467C61.1469 108.761 60.2351 110.081 59.0114 110.873C57.7758 111.665 56.2882 112.06 54.5487 112.06C53.3371 112.06 52.2454 111.869 51.2736 111.485C50.3019 111.101 49.4741 110.549 48.8023 109.829C48.1305 109.109 47.6027 108.258 47.2428 107.274C46.8829 106.29 46.6909 105.186 46.6909 103.999C46.6909 102.811 46.8829 101.779 47.2548 100.784C47.6267 99.7879 48.1665 98.9362 48.8623 98.2044C49.5581 97.4846 50.3859 96.9087 51.3456 96.4888C52.3053 96.069 53.373 95.865 54.5487 95.865C55.8563 95.865 56.996 96.1169 57.9677 96.6208C58.9395 97.1247 59.7432 97.8085 60.3671 98.6602C60.9909 99.512 61.4468 100.484 61.7227 101.575C61.9986 102.667 62.0946 103.807 62.0226 104.994H50.9137C50.9737 106.362 51.3216 107.358 51.9574 107.97" fill="black"></path>
    <path d="M71.8356 96.2849V99.1161H68.7405V106.734C68.7405 107.454 68.8605 107.922 69.1004 108.162C69.3403 108.401 69.8202 108.521 70.528 108.521C70.7679 108.521 70.9959 108.521 71.2118 108.485C71.4277 108.461 71.6437 108.437 71.8356 108.401V111.677C71.4757 111.737 71.0798 111.773 70.648 111.797C70.2161 111.821 69.7842 111.821 69.3643 111.821C68.7045 111.821 68.0927 111.773 67.5048 111.689C66.917 111.605 66.4012 111.425 65.9573 111.173C65.5134 110.921 65.1535 110.549 64.9016 110.069C64.6376 109.589 64.5177 108.965 64.5177 108.198V99.1161H61.9624V96.2849H64.5177V91.6662H68.7405V96.2849H71.8356Z" fill="black"></path>
    <path d="M86.8437 111.689L84.1085 101.347H84.0485L81.4333 111.689H77.0545L72.1719 96.2849H76.6346L79.4658 106.746H79.5258L82.0811 96.2849H86.1959L88.8112 106.71H88.8712L91.7024 96.2849H96.0452L91.1985 111.689H86.8437Z" fill="black"></path>
    <path d="M100.208 105.81C100.328 106.398 100.532 106.926 100.82 107.394C101.108 107.862 101.492 108.234 101.971 108.509C102.451 108.785 103.039 108.929 103.759 108.929C104.479 108.929 105.079 108.785 105.558 108.509C106.05 108.234 106.434 107.862 106.722 107.394C107.01 106.926 107.214 106.398 107.334 105.81C107.454 105.222 107.514 104.623 107.514 104.011C107.514 103.399 107.454 102.787 107.334 102.199C107.214 101.599 107.01 101.084 106.722 100.616C106.434 100.16 106.05 99.7879 105.558 99.5C105.067 99.2121 104.467 99.0681 103.759 99.0681C103.051 99.0681 102.451 99.2121 101.971 99.5C101.492 99.7879 101.108 100.16 100.82 100.616C100.532 101.072 100.328 101.599 100.208 102.199C100.088 102.799 100.028 103.399 100.028 104.011C100.028 104.623 100.088 105.222 100.208 105.81ZM96.369 100.664C96.7409 99.656 97.2808 98.8042 97.9766 98.1084C98.6724 97.4006 99.5001 96.8608 100.472 96.4649C101.444 96.081 102.535 95.889 103.747 95.889C104.959 95.889 106.05 96.081 107.034 96.4649C108.018 96.8488 108.858 97.4006 109.553 98.1084C110.249 98.8162 110.789 99.668 111.161 100.664C111.533 101.671 111.725 102.787 111.725 104.011C111.725 105.234 111.533 106.35 111.161 107.346C110.789 108.342 110.249 109.181 109.553 109.889C108.858 110.597 108.018 111.137 107.034 111.509C106.05 111.881 104.959 112.072 103.747 112.072C102.535 112.072 101.444 111.881 100.472 111.509C99.5001 111.137 98.6604 110.585 97.9766 109.889C97.2808 109.181 96.7409 108.342 96.369 107.346C95.9971 106.35 95.8052 105.246 95.8052 104.011C95.8052 102.775 95.9971 101.659 96.369 100.664Z" fill="black"></path>
    <path d="M117.435 96.2849V99.1401H117.495C117.687 98.6602 117.963 98.2164 118.299 97.8205C118.635 97.4126 119.018 97.0647 119.462 96.7768C119.894 96.4888 120.362 96.2609 120.866 96.1049C121.358 95.949 121.874 95.865 122.413 95.865C122.689 95.865 123.001 95.913 123.337 96.009V99.9439C123.145 99.9079 122.905 99.8719 122.617 99.8359C122.342 99.7999 122.066 99.7879 121.814 99.7879C121.034 99.7879 120.386 99.9199 119.846 100.172C119.306 100.436 118.874 100.784 118.551 101.228C118.227 101.671 117.987 102.199 117.855 102.787C117.711 103.387 117.651 104.023 117.651 104.719V111.653H113.416V96.2609H117.435V96.2849Z" fill="black"></path>
    <path d="M128.58 90.4186V101.827L133.906 96.2849H138.909L133.102 101.947L139.569 111.689H134.446L130.223 104.803L128.58 106.386V111.689H124.357V90.4186H128.58Z" fill="black"></path>
    <path d="M151.481 105.81C151.601 106.398 151.805 106.926 152.093 107.394C152.381 107.862 152.765 108.234 153.245 108.509C153.725 108.785 154.313 108.929 155.032 108.929C155.752 108.929 156.352 108.785 156.832 108.509C157.324 108.234 157.708 107.862 157.996 107.394C158.283 106.926 158.487 106.398 158.607 105.81C158.727 105.222 158.787 104.623 158.787 104.011C158.787 103.399 158.727 102.787 158.607 102.199C158.487 101.599 158.283 101.084 157.996 100.616C157.708 100.16 157.324 99.7879 156.832 99.5C156.34 99.2121 155.74 99.0681 155.032 99.0681C154.325 99.0681 153.725 99.2121 153.245 99.5C152.765 99.7879 152.381 100.16 152.093 100.616C151.805 101.072 151.601 101.599 151.481 102.199C151.361 102.799 151.301 103.399 151.301 104.011C151.301 104.623 151.361 105.222 151.481 105.81ZM147.642 100.664C148.014 99.656 148.554 98.8042 149.25 98.1084C149.946 97.4006 150.774 96.8608 151.745 96.4649C152.717 96.081 153.809 95.889 155.02 95.889C156.232 95.889 157.324 96.081 158.307 96.4649C159.291 96.8488 160.131 97.4006 160.827 98.1084C161.523 98.8162 162.062 99.668 162.434 100.664C162.806 101.671 162.998 102.787 162.998 104.011C162.998 105.234 162.806 106.35 162.434 107.346C162.062 108.342 161.523 109.181 160.827 109.889C160.131 110.597 159.291 111.137 158.307 111.509C157.324 111.881 156.232 112.072 155.02 112.072C153.809 112.072 152.717 111.881 151.745 111.509C150.774 111.137 149.934 110.585 149.25 109.889C148.554 109.181 148.014 108.342 147.642 107.346C147.271 106.35 147.079 105.246 147.079 104.011C147.079 102.775 147.271 101.659 147.642 100.664Z" fill="black"></path>
    <path d="M162.998 99.1161V96.2849H165.529V95.0972C165.529 93.7296 165.961 92.6019 166.813 91.7382C167.665 90.8624 168.96 90.4305 170.688 90.4305C171.06 90.4305 171.444 90.4425 171.816 90.4785C172.187 90.5145 172.559 90.5385 172.919 90.5505V93.7056C172.427 93.6456 171.912 93.6217 171.372 93.6217C170.796 93.6217 170.388 93.7536 170.136 94.0175C169.884 94.2815 169.764 94.7373 169.764 95.3732V96.2969H172.679V99.1281H169.764V111.689H165.529V99.1281H162.998V99.1161Z" fill="black"></path>
    <path d="M31.4551 117.195V134.53H41.8201V138.453H26.7764V117.195H31.4551Z" fill="black"></path>
    <path d="M47.1588 138.453H42.936V123.061H47.1588V138.453ZM42.936 117.195H47.1588V120.674H42.936V117.195Z" fill="black"></path>
    <path d="M53.349 138.453L48.0825 123.061H52.5213L55.7724 133.57H55.8203L59.0714 123.061H63.2702L58.0637 138.453H53.349Z" fill="black"></path>
    <path d="M68.4289 138.453H64.2061V123.061H68.4289V138.453ZM64.2061 117.195H68.4289V120.674H64.2061V117.195Z" fill="black"></path>
    <path d="M74.8229 123.061V125.209H74.9068C75.4467 124.321 76.1425 123.661 76.9942 123.253C77.846 122.845 78.7218 122.641 79.6095 122.641C80.7372 122.641 81.6729 122.797 82.3927 123.097C83.1125 123.409 83.6884 123.829 84.1082 124.381C84.5281 124.933 84.816 125.593 84.984 126.372C85.1519 127.152 85.2359 128.028 85.2359 128.976V138.441H81.0011V129.743C81.0011 128.472 80.7972 127.524 80.4013 126.9C80.0054 126.276 79.2976 125.965 78.2899 125.965C77.1382 125.965 76.3104 126.312 75.7946 126.996C75.2787 127.68 75.0148 128.808 75.0148 130.379V138.453H70.792V123.061H74.8109H74.8229Z" fill="black"></path>
    <path d="M96.1768 134.47C96.6327 134.23 97.0166 133.918 97.3045 133.522C97.6044 133.127 97.8203 132.671 97.9763 132.167C98.1202 131.663 98.2042 131.135 98.2042 130.571C98.2042 129.935 98.1442 129.336 98.0243 128.772C97.9043 128.208 97.7004 127.704 97.4244 127.272C97.1485 126.84 96.7766 126.492 96.3207 126.228C95.8649 125.977 95.289 125.845 94.5932 125.845C93.9934 125.845 93.4895 125.965 93.0577 126.204C92.6258 126.444 92.2779 126.768 91.99 127.176C91.702 127.584 91.4981 128.052 91.3661 128.58C91.2342 129.108 91.1742 129.66 91.1742 130.235C91.1742 130.811 91.2342 131.339 91.3421 131.891C91.4501 132.443 91.6421 132.935 91.906 133.366C92.1699 133.798 92.5298 134.158 92.9617 134.434C93.3936 134.71 93.9454 134.854 94.6052 134.854C95.2051 134.854 95.7209 134.734 96.1888 134.494M101.983 139.617C101.815 140.408 101.455 141.152 100.891 141.836C100.34 142.52 99.5358 143.108 98.4801 143.576C97.4244 144.055 96.0208 144.295 94.2573 144.295C93.5015 144.295 92.7338 144.199 91.954 144.007C91.1742 143.816 90.4544 143.528 89.8066 143.132C89.1588 142.736 88.6309 142.22 88.199 141.596C87.7672 140.972 87.5272 140.217 87.4672 139.353H91.6661C91.87 140.145 92.2539 140.696 92.8297 141.008C93.4056 141.32 94.0654 141.464 94.8212 141.464C96.0088 141.464 96.8846 141.104 97.4244 140.396C97.9763 139.677 98.2282 138.777 98.2162 137.685V135.658H98.1562C97.7004 136.474 97.0525 137.073 96.2008 137.457C95.361 137.841 94.4733 138.033 93.5375 138.033C92.3859 138.033 91.3901 137.829 90.5624 137.421C89.7226 137.013 89.0388 136.462 88.5109 135.754C87.9711 135.046 87.5872 134.23 87.3353 133.282C87.0834 132.335 86.9634 131.339 86.9634 130.295C86.9634 129.3 87.1073 128.34 87.3953 127.428C87.6832 126.504 88.1031 125.689 88.6669 124.981C89.2188 124.273 89.9145 123.709 90.7303 123.301C91.5581 122.881 92.5058 122.677 93.5735 122.677C94.5812 122.677 95.469 122.869 96.2368 123.241C97.0046 123.613 97.6404 124.249 98.1562 125.149H98.2162V123.097H102.235V137.505C102.235 138.117 102.151 138.825 101.983 139.617Z" fill="black"></path>
    <path d="M117.231 117.195V134.53H127.596V138.453H112.564V117.195H117.231Z" fill="black"></path>
    <path d="M138.585 130.919C138.405 131.075 138.177 131.207 137.913 131.291C137.649 131.375 137.361 131.459 137.049 131.519C136.737 131.579 136.414 131.627 136.078 131.663C135.742 131.699 135.406 131.747 135.07 131.807C134.758 131.867 134.434 131.951 134.134 132.047C133.822 132.143 133.558 132.275 133.33 132.455C133.102 132.623 132.923 132.839 132.779 133.091C132.635 133.354 132.575 133.678 132.575 134.074C132.575 134.47 132.647 134.77 132.779 135.022C132.923 135.286 133.103 135.49 133.342 135.634C133.582 135.778 133.858 135.886 134.182 135.946C134.506 136.006 134.83 136.03 135.166 136.03C136.006 136.03 136.642 135.898 137.097 135.61C137.553 135.334 137.889 134.998 138.105 134.614C138.321 134.23 138.453 133.834 138.513 133.438C138.561 133.043 138.585 132.719 138.585 132.491V130.907V130.919ZM128.82 127.788C128.88 126.792 129.132 125.977 129.563 125.317C129.995 124.657 130.559 124.141 131.231 123.733C131.903 123.337 132.671 123.049 133.51 122.881C134.35 122.713 135.202 122.629 136.054 122.629C136.833 122.629 137.613 122.689 138.405 122.797C139.197 122.905 139.929 123.121 140.576 123.433C141.236 123.745 141.764 124.189 142.184 124.753C142.604 125.317 142.808 126.073 142.808 126.996V135.01C142.808 135.706 142.844 136.366 142.928 137.001C143.012 137.637 143.144 138.117 143.348 138.429H139.065C138.981 138.189 138.921 137.949 138.873 137.697C138.825 137.445 138.789 137.193 138.765 136.941C138.093 137.637 137.301 138.117 136.378 138.405C135.466 138.681 134.53 138.825 133.582 138.825C132.851 138.825 132.167 138.741 131.531 138.561C130.895 138.381 130.343 138.105 129.863 137.721C129.384 137.349 129.012 136.869 128.748 136.294C128.484 135.718 128.34 135.034 128.34 134.242C128.34 133.366 128.496 132.647 128.808 132.083C129.12 131.519 129.516 131.063 129.995 130.727C130.475 130.391 131.039 130.139 131.663 129.971C132.287 129.803 132.923 129.672 133.558 129.564C134.194 129.468 134.818 129.384 135.43 129.324C136.042 129.264 136.594 129.18 137.061 129.06C137.541 128.94 137.913 128.772 138.189 128.544C138.465 128.316 138.597 127.98 138.573 127.548C138.573 127.092 138.501 126.732 138.345 126.456C138.201 126.192 137.997 125.977 137.745 125.833C137.493 125.689 137.205 125.581 136.881 125.533C136.558 125.485 136.198 125.461 135.826 125.461C134.986 125.461 134.338 125.641 133.858 126.001C133.378 126.36 133.102 126.948 133.031 127.788H128.808H128.82Z" fill="black"></path>
    <path d="M156.256 128.904C156.112 128.304 155.896 127.788 155.596 127.32C155.296 126.864 154.924 126.504 154.48 126.228C154.037 125.965 153.497 125.833 152.861 125.833C152.225 125.833 151.709 125.965 151.253 126.228C150.798 126.492 150.414 126.864 150.126 127.32C149.826 127.776 149.61 128.304 149.466 128.904C149.322 129.504 149.262 130.127 149.262 130.775C149.262 131.423 149.334 132.023 149.466 132.623C149.61 133.223 149.826 133.75 150.126 134.206C150.426 134.662 150.798 135.022 151.253 135.298C151.709 135.562 152.249 135.706 152.861 135.706C153.473 135.706 154.037 135.574 154.48 135.298C154.924 135.034 155.296 134.674 155.596 134.206C155.896 133.75 156.112 133.223 156.256 132.623C156.388 132.023 156.46 131.411 156.46 130.775C156.46 130.139 156.388 129.492 156.256 128.904ZM149.406 117.207V124.945H149.466C149.982 124.153 150.678 123.565 151.565 123.205C152.453 122.833 153.365 122.653 154.325 122.653C155.104 122.653 155.86 122.809 156.616 123.133C157.372 123.445 158.055 123.937 158.655 124.597C159.255 125.257 159.747 126.097 160.131 127.116C160.503 128.136 160.695 129.36 160.695 130.763C160.695 132.167 160.503 133.39 160.131 134.41C159.759 135.43 159.267 136.27 158.655 136.929C158.055 137.589 157.372 138.069 156.616 138.393C155.86 138.705 155.092 138.873 154.325 138.873C153.197 138.873 152.177 138.693 151.289 138.333C150.402 137.973 149.718 137.373 149.262 136.522H149.202V138.489H145.183V117.231H149.418L149.406 117.207Z" fill="black"></path>
    <path d="M165.889 134.638C166.081 134.962 166.321 135.238 166.621 135.442C166.921 135.646 167.257 135.802 167.653 135.898C168.037 135.994 168.445 136.042 168.864 136.042C169.164 136.042 169.476 136.006 169.8 135.934C170.124 135.862 170.424 135.754 170.7 135.61C170.964 135.466 171.192 135.262 171.372 135.01C171.552 134.758 171.636 134.446 171.636 134.074C171.636 133.438 171.216 132.959 170.364 132.647C169.524 132.335 168.349 132.011 166.837 131.699C166.225 131.555 165.625 131.399 165.037 131.207C164.45 131.015 163.934 130.775 163.478 130.463C163.022 130.151 162.65 129.767 162.374 129.3C162.098 128.832 161.954 128.256 161.954 127.584C161.954 126.588 162.146 125.773 162.53 125.137C162.914 124.501 163.43 123.997 164.066 123.637C164.702 123.265 165.409 123.013 166.213 122.857C167.005 122.713 167.821 122.629 168.66 122.629C169.5 122.629 170.304 122.713 171.084 122.869C171.864 123.025 172.571 123.301 173.183 123.673C173.795 124.045 174.311 124.549 174.719 125.173C175.127 125.797 175.367 126.588 175.451 127.536H171.432C171.372 126.72 171.06 126.168 170.508 125.881C169.956 125.593 169.296 125.449 168.54 125.449C168.301 125.449 168.049 125.461 167.761 125.497C167.485 125.521 167.233 125.593 167.005 125.689C166.777 125.785 166.585 125.929 166.429 126.121C166.273 126.312 166.189 126.564 166.189 126.876C166.189 127.248 166.333 127.56 166.609 127.8C166.885 128.04 167.245 128.232 167.701 128.376C168.145 128.52 168.66 128.664 169.236 128.784C169.812 128.904 170.4 129.036 170.988 129.168C171.6 129.312 172.199 129.48 172.787 129.672C173.375 129.875 173.891 130.127 174.347 130.463C174.803 130.787 175.175 131.195 175.451 131.687C175.726 132.179 175.87 132.779 175.87 133.486C175.87 134.494 175.666 135.346 175.259 136.03C174.851 136.714 174.323 137.265 173.663 137.685C173.003 138.105 172.259 138.393 171.42 138.561C170.58 138.729 169.716 138.813 168.84 138.813C167.965 138.813 167.077 138.729 166.225 138.549C165.373 138.369 164.618 138.069 163.946 137.649C163.286 137.229 162.734 136.678 162.302 135.994C161.87 135.31 161.642 134.446 161.606 133.414H165.625C165.625 133.87 165.721 134.266 165.913 134.59" fill="black"></path>
  </g>
  <defs>
    <clipPath id="clip0_768_5412">
      <rect width="199" height="199" fill="white"></rect>
    </clipPath>
  </defs>
</svg>
